<svg xmlns="http://www.w3.org/2000/svg" width="840" height="460" viewBox="0 0 840 460">
  <rect width="840" height="460" fill="#f8fafc"/>
  <text x="28" y="34" font-size="24" font-family="Helvetica, Arial, sans-serif" fill="#0f172a">P_C1 Convergence</text>
  <text x="28" y="58" font-size="14" font-family="Helvetica, Arial, sans-serif" fill="#475569">Round-wise train/validation/test F1</text>
  <line x1="520" y1="28" x2="542" y2="28" stroke="#2563eb" stroke-width="3" /> <text x="548" y="32" font-size="13" font-family="Helvetica, Arial, sans-serif" fill="#1e293b">train_f1</text> <line x1="620" y1="28" x2="642" y2="28" stroke="#dc2626" stroke-width="3" /> <text x="648" y="32" font-size="13" font-family="Helvetica, Arial, sans-serif" fill="#1e293b">validation_f1</text> <line x1="720" y1="28" x2="742" y2="28" stroke="#059669" stroke-width="3" /> <text x="748" y="32" font-size="13" font-family="Helvetica, Arial, sans-serif" fill="#1e293b">test_f1</text>
  <rect x="70.00" y="70.00" width="720.00" height="300.00" fill="#ffffff" stroke="#94a3b8" stroke-width="1.2" />
  <line x1="70.00" y1="70.00" x2="790.00" y2="70.00" stroke="#cbd5e1" stroke-width="1" /> <text x="18" y="75.00" font-size="12" font-family="Helvetica, Arial, sans-serif" fill="#475569">1.0</text> <line x1="70.00" y1="130.00" x2="790.00" y2="130.00" stroke="#cbd5e1" stroke-width="1" /> <text x="18" y="135.00" font-size="12" font-family="Helvetica, Arial, sans-serif" fill="#475569">0.8</text> <line x1="70.00" y1="190.00" x2="790.00" y2="190.00" stroke="#cbd5e1" stroke-width="1" /> <text x="18" y="195.00" font-size="12" font-family="Helvetica, Arial, sans-serif" fill="#475569">0.6</text> <line x1="70.00" y1="250.00" x2="790.00" y2="250.00" stroke="#cbd5e1" stroke-width="1" /> <text x="18" y="255.00" font-size="12" font-family="Helvetica, Arial, sans-serif" fill="#475569">0.4</text> <line x1="70.00" y1="310.00" x2="790.00" y2="310.00" stroke="#cbd5e1" stroke-width="1" /> <text x="18" y="315.00" font-size="12" font-family="Helvetica, Arial, sans-serif" fill="#475569">0.2</text> <line x1="70.00" y1="370.00" x2="790.00" y2="370.00" stroke="#cbd5e1" stroke-width="1" /> <text x="18" y="375.00" font-size="12" font-family="Helvetica, Arial, sans-serif" fill="#475569">0.0</text>
  <line x1="70.00" y1="370.00" x2="70.00" y2="376.00" stroke="#475569" stroke-width="1" /> <text x="62.00" y="394.00" font-size="12" font-family="Helvetica, Arial, sans-serif" fill="#475569">1</text>
  <polyline fill="none" stroke="#2563eb" stroke-width="3" points="70.00,370.00" /> <polyline fill="none" stroke="#dc2626" stroke-width="3" points="70.00,370.00" /> <polyline fill="none" stroke="#059669" stroke-width="3" points="70.00,327.75" />
  <text x="406.00" y="418.00" font-size="13" font-family="Helvetica, Arial, sans-serif" fill="#334155">Round</text>
  <text x="16" y="56.00" font-size="13" font-family="Helvetica, Arial, sans-serif" fill="#334155">F1</text>
</svg>
