<?xml version="1.0" encoding="utf-8" standalone="no"?>
<!DOCTYPE svg PUBLIC "-//W3C//DTD SVG 1.1//EN"
  "http://www.w3.org/Graphics/SVG/1.1/DTD/svg11.dtd">
<svg xmlns:xlink="http://www.w3.org/1999/xlink" width="720pt" height="396pt" viewBox="0 0 720 396" xmlns="http://www.w3.org/2000/svg" version="1.1">
 <metadata>
  <rdf:RDF xmlns:dc="http://purl.org/dc/elements/1.1/" xmlns:cc="http://creativecommons.org/ns#" xmlns:rdf="http://www.w3.org/1999/02/22-rdf-syntax-ns#">
   <cc:Work>
    <dc:type rdf:resource="http://purl.org/dc/dcmitype/StillImage"/>
    <dc:date>2026-04-23T23:12:23.493650</dc:date>
    <dc:format>image/svg+xml</dc:format>
    <dc:creator>
     <cc:Agent>
      <dc:title>Matplotlib v3.10.8, https://matplotlib.org/</dc:title>
     </cc:Agent>
    </dc:creator>
   </cc:Work>
  </rdf:RDF>
 </metadata>
 <defs>
  <style type="text/css">*{stroke-linejoin: round; stroke-linecap: butt}</style>
 </defs>
 <g id="figure_1">
  <g id="patch_1">
   <path d="M 0 396 
L 720 396 
L 720 0 
L 0 0 
z
" style="fill: #f8fafc"/>
  </g>
  <g id="axes_1">
   <g id="patch_2">
    <path d="M 39.58149 362.64351 
L 716.99976 362.64351 
L 716.99976 28.87524 
L 39.58149 28.87524 
z
" style="fill: #ffffff"/>
   </g>
   <g id="matplotlib.axis_1">
    <g id="xtick_1">
     <g id="line2d_1">
      <defs>
       <path id="mf74589dab5" d="M 0 0 
L 0 3.5 
" style="stroke: #000000; stroke-width: 0.8"/>
      </defs>
      <g>
       <use xlink:href="#mf74589dab5" x="57.805173" y="362.64351" style="stroke: #000000; stroke-width: 0.8"/>
      </g>
     </g>
     <g id="text_1">
      <!-- 0 -->
      <g transform="translate(54.623923 377.241947) scale(0.1 -0.1)">
       <defs>
        <path id="DejaVuSans-30" d="M 2034 4250 
Q 1547 4250 1301 3770 
Q 1056 3291 1056 2328 
Q 1056 1369 1301 889 
Q 1547 409 2034 409 
Q 2525 409 2770 889 
Q 3016 1369 3016 2328 
Q 3016 3291 2770 3770 
Q 2525 4250 2034 4250 
z
M 2034 4750 
Q 2819 4750 3233 4129 
Q 3647 3509 3647 2328 
Q 3647 1150 3233 529 
Q 2819 -91 2034 -91 
Q 1250 -91 836 529 
Q 422 1150 422 2328 
Q 422 3509 836 4129 
Q 1250 4750 2034 4750 
z
" transform="scale(0.015625)"/>
       </defs>
       <use xlink:href="#DejaVuSans-30"/>
      </g>
     </g>
    </g>
    <g id="xtick_2">
     <g id="line2d_2">
      <g>
       <use xlink:href="#mf74589dab5" x="133.213514" y="362.64351" style="stroke: #000000; stroke-width: 0.8"/>
      </g>
     </g>
     <g id="text_2">
      <!-- 6 -->
      <g transform="translate(130.032264 377.241947) scale(0.1 -0.1)">
       <defs>
        <path id="DejaVuSans-36" d="M 2113 2584 
Q 1688 2584 1439 2293 
Q 1191 2003 1191 1497 
Q 1191 994 1439 701 
Q 1688 409 2113 409 
Q 2538 409 2786 701 
Q 3034 994 3034 1497 
Q 3034 2003 2786 2293 
Q 2538 2584 2113 2584 
z
M 3366 4563 
L 3366 3988 
Q 3128 4100 2886 4159 
Q 2644 4219 2406 4219 
Q 1781 4219 1451 3797 
Q 1122 3375 1075 2522 
Q 1259 2794 1537 2939 
Q 1816 3084 2150 3084 
Q 2853 3084 3261 2657 
Q 3669 2231 3669 1497 
Q 3669 778 3244 343 
Q 2819 -91 2113 -91 
Q 1303 -91 875 529 
Q 447 1150 447 2328 
Q 447 3434 972 4092 
Q 1497 4750 2381 4750 
Q 2619 4750 2861 4703 
Q 3103 4656 3366 4563 
z
" transform="scale(0.015625)"/>
       </defs>
       <use xlink:href="#DejaVuSans-36"/>
      </g>
     </g>
    </g>
    <g id="xtick_3">
     <g id="line2d_3">
      <g>
       <use xlink:href="#mf74589dab5" x="208.621856" y="362.64351" style="stroke: #000000; stroke-width: 0.8"/>
      </g>
     </g>
     <g id="text_3">
      <!-- 12 -->
      <g transform="translate(202.259356 377.241947) scale(0.1 -0.1)">
       <defs>
        <path id="DejaVuSans-31" d="M 794 531 
L 1825 531 
L 1825 4091 
L 703 3866 
L 703 4441 
L 1819 4666 
L 2450 4666 
L 2450 531 
L 3481 531 
L 3481 0 
L 794 0 
L 794 531 
z
" transform="scale(0.015625)"/>
        <path id="DejaVuSans-32" d="M 1228 531 
L 3431 531 
L 3431 0 
L 469 0 
L 469 531 
Q 828 903 1448 1529 
Q 2069 2156 2228 2338 
Q 2531 2678 2651 2914 
Q 2772 3150 2772 3378 
Q 2772 3750 2511 3984 
Q 2250 4219 1831 4219 
Q 1534 4219 1204 4116 
Q 875 4013 500 3803 
L 500 4441 
Q 881 4594 1212 4672 
Q 1544 4750 1819 4750 
Q 2544 4750 2975 4387 
Q 3406 4025 3406 3419 
Q 3406 3131 3298 2873 
Q 3191 2616 2906 2266 
Q 2828 2175 2409 1742 
Q 1991 1309 1228 531 
z
" transform="scale(0.015625)"/>
       </defs>
       <use xlink:href="#DejaVuSans-31"/>
       <use xlink:href="#DejaVuSans-32" transform="translate(63.623047 0)"/>
      </g>
     </g>
    </g>
    <g id="xtick_4">
     <g id="line2d_4">
      <g>
       <use xlink:href="#mf74589dab5" x="284.030198" y="362.64351" style="stroke: #000000; stroke-width: 0.8"/>
      </g>
     </g>
     <g id="text_4">
      <!-- 18 -->
      <g transform="translate(277.667698 377.241947) scale(0.1 -0.1)">
       <defs>
        <path id="DejaVuSans-38" d="M 2034 2216 
Q 1584 2216 1326 1975 
Q 1069 1734 1069 1313 
Q 1069 891 1326 650 
Q 1584 409 2034 409 
Q 2484 409 2743 651 
Q 3003 894 3003 1313 
Q 3003 1734 2745 1975 
Q 2488 2216 2034 2216 
z
M 1403 2484 
Q 997 2584 770 2862 
Q 544 3141 544 3541 
Q 544 4100 942 4425 
Q 1341 4750 2034 4750 
Q 2731 4750 3128 4425 
Q 3525 4100 3525 3541 
Q 3525 3141 3298 2862 
Q 3072 2584 2669 2484 
Q 3125 2378 3379 2068 
Q 3634 1759 3634 1313 
Q 3634 634 3220 271 
Q 2806 -91 2034 -91 
Q 1263 -91 848 271 
Q 434 634 434 1313 
Q 434 1759 690 2068 
Q 947 2378 1403 2484 
z
M 1172 3481 
Q 1172 3119 1398 2916 
Q 1625 2713 2034 2713 
Q 2441 2713 2670 2916 
Q 2900 3119 2900 3481 
Q 2900 3844 2670 4047 
Q 2441 4250 2034 4250 
Q 1625 4250 1398 4047 
Q 1172 3844 1172 3481 
z
" transform="scale(0.015625)"/>
       </defs>
       <use xlink:href="#DejaVuSans-31"/>
       <use xlink:href="#DejaVuSans-38" transform="translate(63.623047 0)"/>
      </g>
     </g>
    </g>
    <g id="xtick_5">
     <g id="line2d_5">
      <g>
       <use xlink:href="#mf74589dab5" x="359.43854" y="362.64351" style="stroke: #000000; stroke-width: 0.8"/>
      </g>
     </g>
     <g id="text_5">
      <!-- 24 -->
      <g transform="translate(353.07604 377.241947) scale(0.1 -0.1)">
       <defs>
        <path id="DejaVuSans-34" d="M 2419 4116 
L 825 1625 
L 2419 1625 
L 2419 4116 
z
M 2253 4666 
L 3047 4666 
L 3047 1625 
L 3713 1625 
L 3713 1100 
L 3047 1100 
L 3047 0 
L 2419 0 
L 2419 1100 
L 313 1100 
L 313 1709 
L 2253 4666 
z
" transform="scale(0.015625)"/>
       </defs>
       <use xlink:href="#DejaVuSans-32"/>
       <use xlink:href="#DejaVuSans-34" transform="translate(63.623047 0)"/>
      </g>
     </g>
    </g>
    <g id="xtick_6">
     <g id="line2d_6">
      <g>
       <use xlink:href="#mf74589dab5" x="434.846881" y="362.64351" style="stroke: #000000; stroke-width: 0.8"/>
      </g>
     </g>
     <g id="text_6">
      <!-- 30 -->
      <g transform="translate(428.484381 377.241947) scale(0.1 -0.1)">
       <defs>
        <path id="DejaVuSans-33" d="M 2597 2516 
Q 3050 2419 3304 2112 
Q 3559 1806 3559 1356 
Q 3559 666 3084 287 
Q 2609 -91 1734 -91 
Q 1441 -91 1130 -33 
Q 819 25 488 141 
L 488 750 
Q 750 597 1062 519 
Q 1375 441 1716 441 
Q 2309 441 2620 675 
Q 2931 909 2931 1356 
Q 2931 1769 2642 2001 
Q 2353 2234 1838 2234 
L 1294 2234 
L 1294 2753 
L 1863 2753 
Q 2328 2753 2575 2939 
Q 2822 3125 2822 3475 
Q 2822 3834 2567 4026 
Q 2313 4219 1838 4219 
Q 1578 4219 1281 4162 
Q 984 4106 628 3988 
L 628 4550 
Q 988 4650 1302 4700 
Q 1616 4750 1894 4750 
Q 2613 4750 3031 4423 
Q 3450 4097 3450 3541 
Q 3450 3153 3228 2886 
Q 3006 2619 2597 2516 
z
" transform="scale(0.015625)"/>
       </defs>
       <use xlink:href="#DejaVuSans-33"/>
       <use xlink:href="#DejaVuSans-30" transform="translate(63.623047 0)"/>
      </g>
     </g>
    </g>
    <g id="xtick_7">
     <g id="line2d_7">
      <g>
       <use xlink:href="#mf74589dab5" x="510.255223" y="362.64351" style="stroke: #000000; stroke-width: 0.8"/>
      </g>
     </g>
     <g id="text_7">
      <!-- 36 -->
      <g transform="translate(503.892723 377.241947) scale(0.1 -0.1)">
       <use xlink:href="#DejaVuSans-33"/>
       <use xlink:href="#DejaVuSans-36" transform="translate(63.623047 0)"/>
      </g>
     </g>
    </g>
    <g id="xtick_8">
     <g id="line2d_8">
      <g>
       <use xlink:href="#mf74589dab5" x="585.663565" y="362.64351" style="stroke: #000000; stroke-width: 0.8"/>
      </g>
     </g>
     <g id="text_8">
      <!-- 42 -->
      <g transform="translate(579.301065 377.241947) scale(0.1 -0.1)">
       <use xlink:href="#DejaVuSans-34"/>
       <use xlink:href="#DejaVuSans-32" transform="translate(63.623047 0)"/>
      </g>
     </g>
    </g>
    <g id="xtick_9">
     <g id="line2d_9">
      <g>
       <use xlink:href="#mf74589dab5" x="661.071907" y="362.64351" style="stroke: #000000; stroke-width: 0.8"/>
      </g>
     </g>
     <g id="text_9">
      <!-- 48 -->
      <g transform="translate(654.709407 377.241947) scale(0.1 -0.1)">
       <use xlink:href="#DejaVuSans-34"/>
       <use xlink:href="#DejaVuSans-38" transform="translate(63.623047 0)"/>
      </g>
     </g>
    </g>
    <g id="text_10">
     <!-- Round -->
     <g transform="translate(362.470312 390.920073) scale(0.1 -0.1)">
      <defs>
       <path id="DejaVuSans-52" d="M 2841 2188 
Q 3044 2119 3236 1894 
Q 3428 1669 3622 1275 
L 4263 0 
L 3584 0 
L 2988 1197 
Q 2756 1666 2539 1819 
Q 2322 1972 1947 1972 
L 1259 1972 
L 1259 0 
L 628 0 
L 628 4666 
L 2053 4666 
Q 2853 4666 3247 4331 
Q 3641 3997 3641 3322 
Q 3641 2881 3436 2590 
Q 3231 2300 2841 2188 
z
M 1259 4147 
L 1259 2491 
L 2053 2491 
Q 2509 2491 2742 2702 
Q 2975 2913 2975 3322 
Q 2975 3731 2742 3939 
Q 2509 4147 2053 4147 
L 1259 4147 
z
" transform="scale(0.015625)"/>
       <path id="DejaVuSans-6f" d="M 1959 3097 
Q 1497 3097 1228 2736 
Q 959 2375 959 1747 
Q 959 1119 1226 758 
Q 1494 397 1959 397 
Q 2419 397 2687 759 
Q 2956 1122 2956 1747 
Q 2956 2369 2687 2733 
Q 2419 3097 1959 3097 
z
M 1959 3584 
Q 2709 3584 3137 3096 
Q 3566 2609 3566 1747 
Q 3566 888 3137 398 
Q 2709 -91 1959 -91 
Q 1206 -91 779 398 
Q 353 888 353 1747 
Q 353 2609 779 3096 
Q 1206 3584 1959 3584 
z
" transform="scale(0.015625)"/>
       <path id="DejaVuSans-75" d="M 544 1381 
L 544 3500 
L 1119 3500 
L 1119 1403 
Q 1119 906 1312 657 
Q 1506 409 1894 409 
Q 2359 409 2629 706 
Q 2900 1003 2900 1516 
L 2900 3500 
L 3475 3500 
L 3475 0 
L 2900 0 
L 2900 538 
Q 2691 219 2414 64 
Q 2138 -91 1772 -91 
Q 1169 -91 856 284 
Q 544 659 544 1381 
z
M 1991 3584 
L 1991 3584 
z
" transform="scale(0.015625)"/>
       <path id="DejaVuSans-6e" d="M 3513 2113 
L 3513 0 
L 2938 0 
L 2938 2094 
Q 2938 2591 2744 2837 
Q 2550 3084 2163 3084 
Q 1697 3084 1428 2787 
Q 1159 2491 1159 1978 
L 1159 0 
L 581 0 
L 581 3500 
L 1159 3500 
L 1159 2956 
Q 1366 3272 1645 3428 
Q 1925 3584 2291 3584 
Q 2894 3584 3203 3211 
Q 3513 2838 3513 2113 
z
" transform="scale(0.015625)"/>
       <path id="DejaVuSans-64" d="M 2906 2969 
L 2906 4863 
L 3481 4863 
L 3481 0 
L 2906 0 
L 2906 525 
Q 2725 213 2448 61 
Q 2172 -91 1784 -91 
Q 1150 -91 751 415 
Q 353 922 353 1747 
Q 353 2572 751 3078 
Q 1150 3584 1784 3584 
Q 2172 3584 2448 3432 
Q 2725 3281 2906 2969 
z
M 947 1747 
Q 947 1113 1208 752 
Q 1469 391 1925 391 
Q 2381 391 2643 752 
Q 2906 1113 2906 1747 
Q 2906 2381 2643 2742 
Q 2381 3103 1925 3103 
Q 1469 3103 1208 2742 
Q 947 2381 947 1747 
z
" transform="scale(0.015625)"/>
      </defs>
      <use xlink:href="#DejaVuSans-52"/>
      <use xlink:href="#DejaVuSans-6f" transform="translate(64.982422 0)"/>
      <use xlink:href="#DejaVuSans-75" transform="translate(126.164062 0)"/>
      <use xlink:href="#DejaVuSans-6e" transform="translate(189.542969 0)"/>
      <use xlink:href="#DejaVuSans-64" transform="translate(252.921875 0)"/>
     </g>
    </g>
   </g>
   <g id="matplotlib.axis_2">
    <g id="ytick_1">
     <g id="line2d_10">
      <path d="M 39.58149 362.64351 
L 716.99976 362.64351 
" clip-path="url(#pfdbf1029f7)" style="fill: none; stroke: #b0b0b0; stroke-opacity: 0.28; stroke-width: 0.8; stroke-linecap: square"/>
     </g>
     <g id="line2d_11">
      <defs>
       <path id="m046cbf9539" d="M 0 0 
L -3.5 0 
" style="stroke: #000000; stroke-width: 0.8"/>
      </defs>
      <g>
       <use xlink:href="#m046cbf9539" x="39.58149" y="362.64351" style="stroke: #000000; stroke-width: 0.8"/>
      </g>
     </g>
     <g id="text_11">
      <!-- 0.0 -->
      <g transform="translate(16.678365 366.442729) scale(0.1 -0.1)">
       <defs>
        <path id="DejaVuSans-2e" d="M 684 794 
L 1344 794 
L 1344 0 
L 684 0 
L 684 794 
z
" transform="scale(0.015625)"/>
       </defs>
       <use xlink:href="#DejaVuSans-30"/>
       <use xlink:href="#DejaVuSans-2e" transform="translate(63.623047 0)"/>
       <use xlink:href="#DejaVuSans-30" transform="translate(95.410156 0)"/>
      </g>
     </g>
    </g>
    <g id="ytick_2">
     <g id="line2d_12">
      <path d="M 39.58149 295.889856 
L 716.99976 295.889856 
" clip-path="url(#pfdbf1029f7)" style="fill: none; stroke: #b0b0b0; stroke-opacity: 0.28; stroke-width: 0.8; stroke-linecap: square"/>
     </g>
     <g id="line2d_13">
      <g>
       <use xlink:href="#m046cbf9539" x="39.58149" y="295.889856" style="stroke: #000000; stroke-width: 0.8"/>
      </g>
     </g>
     <g id="text_12">
      <!-- 0.2 -->
      <g transform="translate(16.678365 299.689075) scale(0.1 -0.1)">
       <use xlink:href="#DejaVuSans-30"/>
       <use xlink:href="#DejaVuSans-2e" transform="translate(63.623047 0)"/>
       <use xlink:href="#DejaVuSans-32" transform="translate(95.410156 0)"/>
      </g>
     </g>
    </g>
    <g id="ytick_3">
     <g id="line2d_14">
      <path d="M 39.58149 229.136202 
L 716.99976 229.136202 
" clip-path="url(#pfdbf1029f7)" style="fill: none; stroke: #b0b0b0; stroke-opacity: 0.28; stroke-width: 0.8; stroke-linecap: square"/>
     </g>
     <g id="line2d_15">
      <g>
       <use xlink:href="#m046cbf9539" x="39.58149" y="229.136202" style="stroke: #000000; stroke-width: 0.8"/>
      </g>
     </g>
     <g id="text_13">
      <!-- 0.4 -->
      <g transform="translate(16.678365 232.935421) scale(0.1 -0.1)">
       <use xlink:href="#DejaVuSans-30"/>
       <use xlink:href="#DejaVuSans-2e" transform="translate(63.623047 0)"/>
       <use xlink:href="#DejaVuSans-34" transform="translate(95.410156 0)"/>
      </g>
     </g>
    </g>
    <g id="ytick_4">
     <g id="line2d_16">
      <path d="M 39.58149 162.382548 
L 716.99976 162.382548 
" clip-path="url(#pfdbf1029f7)" style="fill: none; stroke: #b0b0b0; stroke-opacity: 0.28; stroke-width: 0.8; stroke-linecap: square"/>
     </g>
     <g id="line2d_17">
      <g>
       <use xlink:href="#m046cbf9539" x="39.58149" y="162.382548" style="stroke: #000000; stroke-width: 0.8"/>
      </g>
     </g>
     <g id="text_14">
      <!-- 0.6 -->
      <g transform="translate(16.678365 166.181767) scale(0.1 -0.1)">
       <use xlink:href="#DejaVuSans-30"/>
       <use xlink:href="#DejaVuSans-2e" transform="translate(63.623047 0)"/>
       <use xlink:href="#DejaVuSans-36" transform="translate(95.410156 0)"/>
      </g>
     </g>
    </g>
    <g id="ytick_5">
     <g id="line2d_18">
      <path d="M 39.58149 95.628894 
L 716.99976 95.628894 
" clip-path="url(#pfdbf1029f7)" style="fill: none; stroke: #b0b0b0; stroke-opacity: 0.28; stroke-width: 0.8; stroke-linecap: square"/>
     </g>
     <g id="line2d_19">
      <g>
       <use xlink:href="#m046cbf9539" x="39.58149" y="95.628894" style="stroke: #000000; stroke-width: 0.8"/>
      </g>
     </g>
     <g id="text_15">
      <!-- 0.8 -->
      <g transform="translate(16.678365 99.428113) scale(0.1 -0.1)">
       <use xlink:href="#DejaVuSans-30"/>
       <use xlink:href="#DejaVuSans-2e" transform="translate(63.623047 0)"/>
       <use xlink:href="#DejaVuSans-38" transform="translate(95.410156 0)"/>
      </g>
     </g>
    </g>
    <g id="ytick_6">
     <g id="line2d_20">
      <path d="M 39.58149 28.87524 
L 716.99976 28.87524 
" clip-path="url(#pfdbf1029f7)" style="fill: none; stroke: #b0b0b0; stroke-opacity: 0.28; stroke-width: 0.8; stroke-linecap: square"/>
     </g>
     <g id="line2d_21">
      <g>
       <use xlink:href="#m046cbf9539" x="39.58149" y="28.87524" style="stroke: #000000; stroke-width: 0.8"/>
      </g>
     </g>
     <g id="text_16">
      <!-- 1.0 -->
      <g transform="translate(16.678365 32.674459) scale(0.1 -0.1)">
       <use xlink:href="#DejaVuSans-31"/>
       <use xlink:href="#DejaVuSans-2e" transform="translate(63.623047 0)"/>
       <use xlink:href="#DejaVuSans-30" transform="translate(95.410156 0)"/>
      </g>
     </g>
    </g>
    <g id="text_17">
     <!-- F1 -->
     <g transform="translate(10.598677 201.816406) rotate(-90) scale(0.1 -0.1)">
      <defs>
       <path id="DejaVuSans-46" d="M 628 4666 
L 3309 4666 
L 3309 4134 
L 1259 4134 
L 1259 2759 
L 3109 2759 
L 3109 2228 
L 1259 2228 
L 1259 0 
L 628 0 
L 628 4666 
z
" transform="scale(0.015625)"/>
      </defs>
      <use xlink:href="#DejaVuSans-46"/>
      <use xlink:href="#DejaVuSans-31" transform="translate(57.519531 0)"/>
     </g>
    </g>
   </g>
   <g id="line2d_22">
    <path d="M 70.37323 362.64351 
L 82.941287 227.83157 
L 95.509343 170.859938 
L 108.0774 165.277253 
L 120.645457 160.321471 
L 133.213514 159.042853 
L 145.781571 160.336311 
L 158.349628 157.5684 
L 170.917685 159.031978 
L 183.485742 159.321791 
L 196.053799 157.554796 
L 208.621856 158.064443 
L 221.189913 168.791406 
L 233.75797 158.590108 
L 246.326027 152.964164 
L 258.894084 149.017968 
L 271.462141 151.539315 
L 284.030198 150.260868 
L 296.598255 153.233235 
L 309.166312 149.379458 
L 321.734369 145.071055 
L 334.302426 141.967428 
L 346.870483 145.213535 
L 359.43854 147.078052 
L 372.006597 149.15927 
L 384.574653 151.137532 
L 397.14271 144.466687 
L 409.710767 152.544841 
L 422.278824 147.895856 
L 434.846881 143.365519 
L 447.414938 150.494911 
L 459.982995 150.27318 
L 472.551052 148.023986 
L 485.119109 148.91208 
L 497.687166 156.800361 
L 510.255223 150.081062 
L 522.82328 148.14257 
L 535.391337 167.390404 
L 547.959394 154.613804 
L 560.527451 159.347025 
L 573.095508 150.50508 
L 585.663565 153.566028 
L 598.231622 150.284338 
L 610.799679 140.540924 
L 623.367736 149.253068 
L 635.935793 149.889789 
L 648.50385 154.833532 
L 661.071907 158.031443 
L 673.639963 148.884982 
L 686.20802 160.636477 
" clip-path="url(#pfdbf1029f7)" style="fill: none; stroke: #2563eb; stroke-width: 2.5; stroke-linecap: square"/>
    <defs>
     <path id="m1e5fde5448" d="M 0 2.5 
C 0.663008 2.5 1.29895 2.236584 1.767767 1.767767 
C 2.236584 1.29895 2.5 0.663008 2.5 0 
C 2.5 -0.663008 2.236584 -1.29895 1.767767 -1.767767 
C 1.29895 -2.236584 0.663008 -2.5 0 -2.5 
C -0.663008 -2.5 -1.29895 -2.236584 -1.767767 -1.767767 
C -2.236584 -1.29895 -2.5 -0.663008 -2.5 0 
C -2.5 0.663008 -2.236584 1.29895 -1.767767 1.767767 
C -1.29895 2.236584 -0.663008 2.5 0 2.5 
z
" style="stroke: #2563eb"/>
    </defs>
    <g clip-path="url(#pfdbf1029f7)">
     <use xlink:href="#m1e5fde5448" x="70.37323" y="362.64351" style="fill: #2563eb; stroke: #2563eb"/>
     <use xlink:href="#m1e5fde5448" x="82.941287" y="227.83157" style="fill: #2563eb; stroke: #2563eb"/>
     <use xlink:href="#m1e5fde5448" x="95.509343" y="170.859938" style="fill: #2563eb; stroke: #2563eb"/>
     <use xlink:href="#m1e5fde5448" x="108.0774" y="165.277253" style="fill: #2563eb; stroke: #2563eb"/>
     <use xlink:href="#m1e5fde5448" x="120.645457" y="160.321471" style="fill: #2563eb; stroke: #2563eb"/>
     <use xlink:href="#m1e5fde5448" x="133.213514" y="159.042853" style="fill: #2563eb; stroke: #2563eb"/>
     <use xlink:href="#m1e5fde5448" x="145.781571" y="160.336311" style="fill: #2563eb; stroke: #2563eb"/>
     <use xlink:href="#m1e5fde5448" x="158.349628" y="157.5684" style="fill: #2563eb; stroke: #2563eb"/>
     <use xlink:href="#m1e5fde5448" x="170.917685" y="159.031978" style="fill: #2563eb; stroke: #2563eb"/>
     <use xlink:href="#m1e5fde5448" x="183.485742" y="159.321791" style="fill: #2563eb; stroke: #2563eb"/>
     <use xlink:href="#m1e5fde5448" x="196.053799" y="157.554796" style="fill: #2563eb; stroke: #2563eb"/>
     <use xlink:href="#m1e5fde5448" x="208.621856" y="158.064443" style="fill: #2563eb; stroke: #2563eb"/>
     <use xlink:href="#m1e5fde5448" x="221.189913" y="168.791406" style="fill: #2563eb; stroke: #2563eb"/>
     <use xlink:href="#m1e5fde5448" x="233.75797" y="158.590108" style="fill: #2563eb; stroke: #2563eb"/>
     <use xlink:href="#m1e5fde5448" x="246.326027" y="152.964164" style="fill: #2563eb; stroke: #2563eb"/>
     <use xlink:href="#m1e5fde5448" x="258.894084" y="149.017968" style="fill: #2563eb; stroke: #2563eb"/>
     <use xlink:href="#m1e5fde5448" x="271.462141" y="151.539315" style="fill: #2563eb; stroke: #2563eb"/>
     <use xlink:href="#m1e5fde5448" x="284.030198" y="150.260868" style="fill: #2563eb; stroke: #2563eb"/>
     <use xlink:href="#m1e5fde5448" x="296.598255" y="153.233235" style="fill: #2563eb; stroke: #2563eb"/>
     <use xlink:href="#m1e5fde5448" x="309.166312" y="149.379458" style="fill: #2563eb; stroke: #2563eb"/>
     <use xlink:href="#m1e5fde5448" x="321.734369" y="145.071055" style="fill: #2563eb; stroke: #2563eb"/>
     <use xlink:href="#m1e5fde5448" x="334.302426" y="141.967428" style="fill: #2563eb; stroke: #2563eb"/>
     <use xlink:href="#m1e5fde5448" x="346.870483" y="145.213535" style="fill: #2563eb; stroke: #2563eb"/>
     <use xlink:href="#m1e5fde5448" x="359.43854" y="147.078052" style="fill: #2563eb; stroke: #2563eb"/>
     <use xlink:href="#m1e5fde5448" x="372.006597" y="149.15927" style="fill: #2563eb; stroke: #2563eb"/>
     <use xlink:href="#m1e5fde5448" x="384.574653" y="151.137532" style="fill: #2563eb; stroke: #2563eb"/>
     <use xlink:href="#m1e5fde5448" x="397.14271" y="144.466687" style="fill: #2563eb; stroke: #2563eb"/>
     <use xlink:href="#m1e5fde5448" x="409.710767" y="152.544841" style="fill: #2563eb; stroke: #2563eb"/>
     <use xlink:href="#m1e5fde5448" x="422.278824" y="147.895856" style="fill: #2563eb; stroke: #2563eb"/>
     <use xlink:href="#m1e5fde5448" x="434.846881" y="143.365519" style="fill: #2563eb; stroke: #2563eb"/>
     <use xlink:href="#m1e5fde5448" x="447.414938" y="150.494911" style="fill: #2563eb; stroke: #2563eb"/>
     <use xlink:href="#m1e5fde5448" x="459.982995" y="150.27318" style="fill: #2563eb; stroke: #2563eb"/>
     <use xlink:href="#m1e5fde5448" x="472.551052" y="148.023986" style="fill: #2563eb; stroke: #2563eb"/>
     <use xlink:href="#m1e5fde5448" x="485.119109" y="148.91208" style="fill: #2563eb; stroke: #2563eb"/>
     <use xlink:href="#m1e5fde5448" x="497.687166" y="156.800361" style="fill: #2563eb; stroke: #2563eb"/>
     <use xlink:href="#m1e5fde5448" x="510.255223" y="150.081062" style="fill: #2563eb; stroke: #2563eb"/>
     <use xlink:href="#m1e5fde5448" x="522.82328" y="148.14257" style="fill: #2563eb; stroke: #2563eb"/>
     <use xlink:href="#m1e5fde5448" x="535.391337" y="167.390404" style="fill: #2563eb; stroke: #2563eb"/>
     <use xlink:href="#m1e5fde5448" x="547.959394" y="154.613804" style="fill: #2563eb; stroke: #2563eb"/>
     <use xlink:href="#m1e5fde5448" x="560.527451" y="159.347025" style="fill: #2563eb; stroke: #2563eb"/>
     <use xlink:href="#m1e5fde5448" x="573.095508" y="150.50508" style="fill: #2563eb; stroke: #2563eb"/>
     <use xlink:href="#m1e5fde5448" x="585.663565" y="153.566028" style="fill: #2563eb; stroke: #2563eb"/>
     <use xlink:href="#m1e5fde5448" x="598.231622" y="150.284338" style="fill: #2563eb; stroke: #2563eb"/>
     <use xlink:href="#m1e5fde5448" x="610.799679" y="140.540924" style="fill: #2563eb; stroke: #2563eb"/>
     <use xlink:href="#m1e5fde5448" x="623.367736" y="149.253068" style="fill: #2563eb; stroke: #2563eb"/>
     <use xlink:href="#m1e5fde5448" x="635.935793" y="149.889789" style="fill: #2563eb; stroke: #2563eb"/>
     <use xlink:href="#m1e5fde5448" x="648.50385" y="154.833532" style="fill: #2563eb; stroke: #2563eb"/>
     <use xlink:href="#m1e5fde5448" x="661.071907" y="158.031443" style="fill: #2563eb; stroke: #2563eb"/>
     <use xlink:href="#m1e5fde5448" x="673.639963" y="148.884982" style="fill: #2563eb; stroke: #2563eb"/>
     <use xlink:href="#m1e5fde5448" x="686.20802" y="160.636477" style="fill: #2563eb; stroke: #2563eb"/>
    </g>
   </g>
   <g id="line2d_23">
    <path d="M 70.37323 306.590823 
L 82.941287 206.117701 
L 95.509343 161.578287 
L 108.0774 143.779071 
L 120.645457 145.131604 
L 133.213514 143.720236 
L 145.781571 137.588334 
L 158.349628 136.542424 
L 170.917685 137.588334 
L 183.485742 137.751521 
L 196.053799 138.908736 
L 208.621856 137.588334 
L 221.189913 138.798922 
L 233.75797 137.49805 
L 246.326027 136.227608 
L 258.894084 137.712719 
L 271.462141 135.240952 
L 284.030198 132.953518 
L 296.598255 136.542424 
L 309.166312 136.542424 
L 321.734369 134.084803 
L 334.302426 134.084803 
L 346.870483 134.366766 
L 359.43854 135.240952 
L 372.006597 134.084803 
L 384.574653 133.984585 
L 397.14271 132.953518 
L 409.710767 134.181806 
L 422.278824 134.275746 
L 434.846881 130.612092 
L 447.414938 133.067451 
L 459.982995 130.612092 
L 472.551052 129.364612 
L 485.119109 129.364612 
L 497.687166 129.364612 
L 510.255223 129.364612 
L 522.82328 129.364612 
L 535.391337 128.103645 
L 547.959394 129.364612 
L 560.527451 128.103645 
L 573.095508 131.429736 
L 585.663565 131.281414 
L 598.231622 130.130783 
L 610.799679 130.456887 
L 623.367736 130.456887 
L 635.935793 130.456887 
L 648.50385 131.573169 
L 661.071907 131.429736 
L 673.639963 130.296538 
L 686.20802 130.456887 
" clip-path="url(#pfdbf1029f7)" style="fill: none; stroke: #dc2626; stroke-width: 2.5; stroke-linecap: square"/>
    <defs>
     <path id="md59c7c00db" d="M 0 2.5 
C 0.663008 2.5 1.29895 2.236584 1.767767 1.767767 
C 2.236584 1.29895 2.5 0.663008 2.5 0 
C 2.5 -0.663008 2.236584 -1.29895 1.767767 -1.767767 
C 1.29895 -2.236584 0.663008 -2.5 0 -2.5 
C -0.663008 -2.5 -1.29895 -2.236584 -1.767767 -1.767767 
C -2.236584 -1.29895 -2.5 -0.663008 -2.5 0 
C -2.5 0.663008 -2.236584 1.29895 -1.767767 1.767767 
C -1.29895 2.236584 -0.663008 2.5 0 2.5 
z
" style="stroke: #dc2626"/>
    </defs>
    <g clip-path="url(#pfdbf1029f7)">
     <use xlink:href="#md59c7c00db" x="70.37323" y="306.590823" style="fill: #dc2626; stroke: #dc2626"/>
     <use xlink:href="#md59c7c00db" x="82.941287" y="206.117701" style="fill: #dc2626; stroke: #dc2626"/>
     <use xlink:href="#md59c7c00db" x="95.509343" y="161.578287" style="fill: #dc2626; stroke: #dc2626"/>
     <use xlink:href="#md59c7c00db" x="108.0774" y="143.779071" style="fill: #dc2626; stroke: #dc2626"/>
     <use xlink:href="#md59c7c00db" x="120.645457" y="145.131604" style="fill: #dc2626; stroke: #dc2626"/>
     <use xlink:href="#md59c7c00db" x="133.213514" y="143.720236" style="fill: #dc2626; stroke: #dc2626"/>
     <use xlink:href="#md59c7c00db" x="145.781571" y="137.588334" style="fill: #dc2626; stroke: #dc2626"/>
     <use xlink:href="#md59c7c00db" x="158.349628" y="136.542424" style="fill: #dc2626; stroke: #dc2626"/>
     <use xlink:href="#md59c7c00db" x="170.917685" y="137.588334" style="fill: #dc2626; stroke: #dc2626"/>
     <use xlink:href="#md59c7c00db" x="183.485742" y="137.751521" style="fill: #dc2626; stroke: #dc2626"/>
     <use xlink:href="#md59c7c00db" x="196.053799" y="138.908736" style="fill: #dc2626; stroke: #dc2626"/>
     <use xlink:href="#md59c7c00db" x="208.621856" y="137.588334" style="fill: #dc2626; stroke: #dc2626"/>
     <use xlink:href="#md59c7c00db" x="221.189913" y="138.798922" style="fill: #dc2626; stroke: #dc2626"/>
     <use xlink:href="#md59c7c00db" x="233.75797" y="137.49805" style="fill: #dc2626; stroke: #dc2626"/>
     <use xlink:href="#md59c7c00db" x="246.326027" y="136.227608" style="fill: #dc2626; stroke: #dc2626"/>
     <use xlink:href="#md59c7c00db" x="258.894084" y="137.712719" style="fill: #dc2626; stroke: #dc2626"/>
     <use xlink:href="#md59c7c00db" x="271.462141" y="135.240952" style="fill: #dc2626; stroke: #dc2626"/>
     <use xlink:href="#md59c7c00db" x="284.030198" y="132.953518" style="fill: #dc2626; stroke: #dc2626"/>
     <use xlink:href="#md59c7c00db" x="296.598255" y="136.542424" style="fill: #dc2626; stroke: #dc2626"/>
     <use xlink:href="#md59c7c00db" x="309.166312" y="136.542424" style="fill: #dc2626; stroke: #dc2626"/>
     <use xlink:href="#md59c7c00db" x="321.734369" y="134.084803" style="fill: #dc2626; stroke: #dc2626"/>
     <use xlink:href="#md59c7c00db" x="334.302426" y="134.084803" style="fill: #dc2626; stroke: #dc2626"/>
     <use xlink:href="#md59c7c00db" x="346.870483" y="134.366766" style="fill: #dc2626; stroke: #dc2626"/>
     <use xlink:href="#md59c7c00db" x="359.43854" y="135.240952" style="fill: #dc2626; stroke: #dc2626"/>
     <use xlink:href="#md59c7c00db" x="372.006597" y="134.084803" style="fill: #dc2626; stroke: #dc2626"/>
     <use xlink:href="#md59c7c00db" x="384.574653" y="133.984585" style="fill: #dc2626; stroke: #dc2626"/>
     <use xlink:href="#md59c7c00db" x="397.14271" y="132.953518" style="fill: #dc2626; stroke: #dc2626"/>
     <use xlink:href="#md59c7c00db" x="409.710767" y="134.181806" style="fill: #dc2626; stroke: #dc2626"/>
     <use xlink:href="#md59c7c00db" x="422.278824" y="134.275746" style="fill: #dc2626; stroke: #dc2626"/>
     <use xlink:href="#md59c7c00db" x="434.846881" y="130.612092" style="fill: #dc2626; stroke: #dc2626"/>
     <use xlink:href="#md59c7c00db" x="447.414938" y="133.067451" style="fill: #dc2626; stroke: #dc2626"/>
     <use xlink:href="#md59c7c00db" x="459.982995" y="130.612092" style="fill: #dc2626; stroke: #dc2626"/>
     <use xlink:href="#md59c7c00db" x="472.551052" y="129.364612" style="fill: #dc2626; stroke: #dc2626"/>
     <use xlink:href="#md59c7c00db" x="485.119109" y="129.364612" style="fill: #dc2626; stroke: #dc2626"/>
     <use xlink:href="#md59c7c00db" x="497.687166" y="129.364612" style="fill: #dc2626; stroke: #dc2626"/>
     <use xlink:href="#md59c7c00db" x="510.255223" y="129.364612" style="fill: #dc2626; stroke: #dc2626"/>
     <use xlink:href="#md59c7c00db" x="522.82328" y="129.364612" style="fill: #dc2626; stroke: #dc2626"/>
     <use xlink:href="#md59c7c00db" x="535.391337" y="128.103645" style="fill: #dc2626; stroke: #dc2626"/>
     <use xlink:href="#md59c7c00db" x="547.959394" y="129.364612" style="fill: #dc2626; stroke: #dc2626"/>
     <use xlink:href="#md59c7c00db" x="560.527451" y="128.103645" style="fill: #dc2626; stroke: #dc2626"/>
     <use xlink:href="#md59c7c00db" x="573.095508" y="131.429736" style="fill: #dc2626; stroke: #dc2626"/>
     <use xlink:href="#md59c7c00db" x="585.663565" y="131.281414" style="fill: #dc2626; stroke: #dc2626"/>
     <use xlink:href="#md59c7c00db" x="598.231622" y="130.130783" style="fill: #dc2626; stroke: #dc2626"/>
     <use xlink:href="#md59c7c00db" x="610.799679" y="130.456887" style="fill: #dc2626; stroke: #dc2626"/>
     <use xlink:href="#md59c7c00db" x="623.367736" y="130.456887" style="fill: #dc2626; stroke: #dc2626"/>
     <use xlink:href="#md59c7c00db" x="635.935793" y="130.456887" style="fill: #dc2626; stroke: #dc2626"/>
     <use xlink:href="#md59c7c00db" x="648.50385" y="131.573169" style="fill: #dc2626; stroke: #dc2626"/>
     <use xlink:href="#md59c7c00db" x="661.071907" y="131.429736" style="fill: #dc2626; stroke: #dc2626"/>
     <use xlink:href="#md59c7c00db" x="673.639963" y="130.296538" style="fill: #dc2626; stroke: #dc2626"/>
     <use xlink:href="#md59c7c00db" x="686.20802" y="130.456887" style="fill: #dc2626; stroke: #dc2626"/>
    </g>
   </g>
   <g id="line2d_24">
    <path d="M 70.37323 353.107274 
L 82.941287 283.59313 
L 95.509343 233.062888 
L 108.0774 215.337961 
L 120.645457 234.649778 
L 133.213514 224.134487 
L 145.781571 221.396648 
L 158.349628 210.332356 
L 170.917685 217.946283 
L 183.485742 195.30465 
L 196.053799 196.67131 
L 208.621856 199.050048 
L 221.189913 202.43474 
L 233.75797 198.123173 
L 246.326027 197.169663 
L 258.894084 188.901123 
L 271.462141 188.423809 
L 284.030198 186.313103 
L 296.598255 187.072256 
L 309.166312 187.072256 
L 321.734369 184.391246 
L 334.302426 182.572345 
L 346.870483 175.944636 
L 359.43854 186.210147 
L 372.006597 180.915234 
L 384.574653 180.915234 
L 397.14271 178.310364 
L 409.710767 177.705946 
L 422.278824 175.172618 
L 434.846881 177.513376 
L 447.414938 174.731079 
L 459.982995 174.225938 
L 472.551052 176.020391 
L 485.119109 177.316654 
L 497.687166 172.922599 
L 510.255223 173.684754 
L 522.82328 174.731079 
L 535.391337 172.941437 
L 547.959394 175.233519 
L 560.527451 175.011618 
L 573.095508 185.126868 
L 585.663565 184.633766 
L 598.231622 182.427034 
L 610.799679 179.756787 
L 623.367736 180.256477 
L 635.935793 178.934544 
L 648.50385 175.011618 
L 661.071907 179.756787 
L 673.639963 182.427034 
L 686.20802 177.619795 
" clip-path="url(#pfdbf1029f7)" style="fill: none; stroke: #059669; stroke-width: 2.5; stroke-linecap: square"/>
    <defs>
     <path id="m4716d7d0b9" d="M 0 2.5 
C 0.663008 2.5 1.29895 2.236584 1.767767 1.767767 
C 2.236584 1.29895 2.5 0.663008 2.5 0 
C 2.5 -0.663008 2.236584 -1.29895 1.767767 -1.767767 
C 1.29895 -2.236584 0.663008 -2.5 0 -2.5 
C -0.663008 -2.5 -1.29895 -2.236584 -1.767767 -1.767767 
C -2.236584 -1.29895 -2.5 -0.663008 -2.5 0 
C -2.5 0.663008 -2.236584 1.29895 -1.767767 1.767767 
C -1.29895 2.236584 -0.663008 2.5 0 2.5 
z
" style="stroke: #059669"/>
    </defs>
    <g clip-path="url(#pfdbf1029f7)">
     <use xlink:href="#m4716d7d0b9" x="70.37323" y="353.107274" style="fill: #059669; stroke: #059669"/>
     <use xlink:href="#m4716d7d0b9" x="82.941287" y="283.59313" style="fill: #059669; stroke: #059669"/>
     <use xlink:href="#m4716d7d0b9" x="95.509343" y="233.062888" style="fill: #059669; stroke: #059669"/>
     <use xlink:href="#m4716d7d0b9" x="108.0774" y="215.337961" style="fill: #059669; stroke: #059669"/>
     <use xlink:href="#m4716d7d0b9" x="120.645457" y="234.649778" style="fill: #059669; stroke: #059669"/>
     <use xlink:href="#m4716d7d0b9" x="133.213514" y="224.134487" style="fill: #059669; stroke: #059669"/>
     <use xlink:href="#m4716d7d0b9" x="145.781571" y="221.396648" style="fill: #059669; stroke: #059669"/>
     <use xlink:href="#m4716d7d0b9" x="158.349628" y="210.332356" style="fill: #059669; stroke: #059669"/>
     <use xlink:href="#m4716d7d0b9" x="170.917685" y="217.946283" style="fill: #059669; stroke: #059669"/>
     <use xlink:href="#m4716d7d0b9" x="183.485742" y="195.30465" style="fill: #059669; stroke: #059669"/>
     <use xlink:href="#m4716d7d0b9" x="196.053799" y="196.67131" style="fill: #059669; stroke: #059669"/>
     <use xlink:href="#m4716d7d0b9" x="208.621856" y="199.050048" style="fill: #059669; stroke: #059669"/>
     <use xlink:href="#m4716d7d0b9" x="221.189913" y="202.43474" style="fill: #059669; stroke: #059669"/>
     <use xlink:href="#m4716d7d0b9" x="233.75797" y="198.123173" style="fill: #059669; stroke: #059669"/>
     <use xlink:href="#m4716d7d0b9" x="246.326027" y="197.169663" style="fill: #059669; stroke: #059669"/>
     <use xlink:href="#m4716d7d0b9" x="258.894084" y="188.901123" style="fill: #059669; stroke: #059669"/>
     <use xlink:href="#m4716d7d0b9" x="271.462141" y="188.423809" style="fill: #059669; stroke: #059669"/>
     <use xlink:href="#m4716d7d0b9" x="284.030198" y="186.313103" style="fill: #059669; stroke: #059669"/>
     <use xlink:href="#m4716d7d0b9" x="296.598255" y="187.072256" style="fill: #059669; stroke: #059669"/>
     <use xlink:href="#m4716d7d0b9" x="309.166312" y="187.072256" style="fill: #059669; stroke: #059669"/>
     <use xlink:href="#m4716d7d0b9" x="321.734369" y="184.391246" style="fill: #059669; stroke: #059669"/>
     <use xlink:href="#m4716d7d0b9" x="334.302426" y="182.572345" style="fill: #059669; stroke: #059669"/>
     <use xlink:href="#m4716d7d0b9" x="346.870483" y="175.944636" style="fill: #059669; stroke: #059669"/>
     <use xlink:href="#m4716d7d0b9" x="359.43854" y="186.210147" style="fill: #059669; stroke: #059669"/>
     <use xlink:href="#m4716d7d0b9" x="372.006597" y="180.915234" style="fill: #059669; stroke: #059669"/>
     <use xlink:href="#m4716d7d0b9" x="384.574653" y="180.915234" style="fill: #059669; stroke: #059669"/>
     <use xlink:href="#m4716d7d0b9" x="397.14271" y="178.310364" style="fill: #059669; stroke: #059669"/>
     <use xlink:href="#m4716d7d0b9" x="409.710767" y="177.705946" style="fill: #059669; stroke: #059669"/>
     <use xlink:href="#m4716d7d0b9" x="422.278824" y="175.172618" style="fill: #059669; stroke: #059669"/>
     <use xlink:href="#m4716d7d0b9" x="434.846881" y="177.513376" style="fill: #059669; stroke: #059669"/>
     <use xlink:href="#m4716d7d0b9" x="447.414938" y="174.731079" style="fill: #059669; stroke: #059669"/>
     <use xlink:href="#m4716d7d0b9" x="459.982995" y="174.225938" style="fill: #059669; stroke: #059669"/>
     <use xlink:href="#m4716d7d0b9" x="472.551052" y="176.020391" style="fill: #059669; stroke: #059669"/>
     <use xlink:href="#m4716d7d0b9" x="485.119109" y="177.316654" style="fill: #059669; stroke: #059669"/>
     <use xlink:href="#m4716d7d0b9" x="497.687166" y="172.922599" style="fill: #059669; stroke: #059669"/>
     <use xlink:href="#m4716d7d0b9" x="510.255223" y="173.684754" style="fill: #059669; stroke: #059669"/>
     <use xlink:href="#m4716d7d0b9" x="522.82328" y="174.731079" style="fill: #059669; stroke: #059669"/>
     <use xlink:href="#m4716d7d0b9" x="535.391337" y="172.941437" style="fill: #059669; stroke: #059669"/>
     <use xlink:href="#m4716d7d0b9" x="547.959394" y="175.233519" style="fill: #059669; stroke: #059669"/>
     <use xlink:href="#m4716d7d0b9" x="560.527451" y="175.011618" style="fill: #059669; stroke: #059669"/>
     <use xlink:href="#m4716d7d0b9" x="573.095508" y="185.126868" style="fill: #059669; stroke: #059669"/>
     <use xlink:href="#m4716d7d0b9" x="585.663565" y="184.633766" style="fill: #059669; stroke: #059669"/>
     <use xlink:href="#m4716d7d0b9" x="598.231622" y="182.427034" style="fill: #059669; stroke: #059669"/>
     <use xlink:href="#m4716d7d0b9" x="610.799679" y="179.756787" style="fill: #059669; stroke: #059669"/>
     <use xlink:href="#m4716d7d0b9" x="623.367736" y="180.256477" style="fill: #059669; stroke: #059669"/>
     <use xlink:href="#m4716d7d0b9" x="635.935793" y="178.934544" style="fill: #059669; stroke: #059669"/>
     <use xlink:href="#m4716d7d0b9" x="648.50385" y="175.011618" style="fill: #059669; stroke: #059669"/>
     <use xlink:href="#m4716d7d0b9" x="661.071907" y="179.756787" style="fill: #059669; stroke: #059669"/>
     <use xlink:href="#m4716d7d0b9" x="673.639963" y="182.427034" style="fill: #059669; stroke: #059669"/>
     <use xlink:href="#m4716d7d0b9" x="686.20802" y="177.619795" style="fill: #059669; stroke: #059669"/>
    </g>
   </g>
   <g id="patch_3">
    <path d="M 39.58149 362.64351 
L 39.58149 28.87524 
" style="fill: none; stroke: #000000; stroke-width: 0.8; stroke-linejoin: miter; stroke-linecap: square"/>
   </g>
   <g id="patch_4">
    <path d="M 39.58149 362.64351 
L 716.99976 362.64351 
" style="fill: none; stroke: #000000; stroke-width: 0.8; stroke-linejoin: miter; stroke-linecap: square"/>
   </g>
   <g id="text_18">
    <!-- A_C1 Convergence -->
    <g transform="translate(302.849375 14.87524) scale(0.16 -0.16)">
     <defs>
      <path id="DejaVuSans-41" d="M 2188 4044 
L 1331 1722 
L 3047 1722 
L 2188 4044 
z
M 1831 4666 
L 2547 4666 
L 4325 0 
L 3669 0 
L 3244 1197 
L 1141 1197 
L 716 0 
L 50 0 
L 1831 4666 
z
" transform="scale(0.015625)"/>
      <path id="DejaVuSans-5f" d="M 3263 -1063 
L 3263 -1509 
L -63 -1509 
L -63 -1063 
L 3263 -1063 
z
" transform="scale(0.015625)"/>
      <path id="DejaVuSans-43" d="M 4122 4306 
L 4122 3641 
Q 3803 3938 3442 4084 
Q 3081 4231 2675 4231 
Q 1875 4231 1450 3742 
Q 1025 3253 1025 2328 
Q 1025 1406 1450 917 
Q 1875 428 2675 428 
Q 3081 428 3442 575 
Q 3803 722 4122 1019 
L 4122 359 
Q 3791 134 3420 21 
Q 3050 -91 2638 -91 
Q 1578 -91 968 557 
Q 359 1206 359 2328 
Q 359 3453 968 4101 
Q 1578 4750 2638 4750 
Q 3056 4750 3426 4639 
Q 3797 4528 4122 4306 
z
" transform="scale(0.015625)"/>
      <path id="DejaVuSans-20" transform="scale(0.015625)"/>
      <path id="DejaVuSans-76" d="M 191 3500 
L 800 3500 
L 1894 563 
L 2988 3500 
L 3597 3500 
L 2284 0 
L 1503 0 
L 191 3500 
z
" transform="scale(0.015625)"/>
      <path id="DejaVuSans-65" d="M 3597 1894 
L 3597 1613 
L 953 1613 
Q 991 1019 1311 708 
Q 1631 397 2203 397 
Q 2534 397 2845 478 
Q 3156 559 3463 722 
L 3463 178 
Q 3153 47 2828 -22 
Q 2503 -91 2169 -91 
Q 1331 -91 842 396 
Q 353 884 353 1716 
Q 353 2575 817 3079 
Q 1281 3584 2069 3584 
Q 2775 3584 3186 3129 
Q 3597 2675 3597 1894 
z
M 3022 2063 
Q 3016 2534 2758 2815 
Q 2500 3097 2075 3097 
Q 1594 3097 1305 2825 
Q 1016 2553 972 2059 
L 3022 2063 
z
" transform="scale(0.015625)"/>
      <path id="DejaVuSans-72" d="M 2631 2963 
Q 2534 3019 2420 3045 
Q 2306 3072 2169 3072 
Q 1681 3072 1420 2755 
Q 1159 2438 1159 1844 
L 1159 0 
L 581 0 
L 581 3500 
L 1159 3500 
L 1159 2956 
Q 1341 3275 1631 3429 
Q 1922 3584 2338 3584 
Q 2397 3584 2469 3576 
Q 2541 3569 2628 3553 
L 2631 2963 
z
" transform="scale(0.015625)"/>
      <path id="DejaVuSans-67" d="M 2906 1791 
Q 2906 2416 2648 2759 
Q 2391 3103 1925 3103 
Q 1463 3103 1205 2759 
Q 947 2416 947 1791 
Q 947 1169 1205 825 
Q 1463 481 1925 481 
Q 2391 481 2648 825 
Q 2906 1169 2906 1791 
z
M 3481 434 
Q 3481 -459 3084 -895 
Q 2688 -1331 1869 -1331 
Q 1566 -1331 1297 -1286 
Q 1028 -1241 775 -1147 
L 775 -588 
Q 1028 -725 1275 -790 
Q 1522 -856 1778 -856 
Q 2344 -856 2625 -561 
Q 2906 -266 2906 331 
L 2906 616 
Q 2728 306 2450 153 
Q 2172 0 1784 0 
Q 1141 0 747 490 
Q 353 981 353 1791 
Q 353 2603 747 3093 
Q 1141 3584 1784 3584 
Q 2172 3584 2450 3431 
Q 2728 3278 2906 2969 
L 2906 3500 
L 3481 3500 
L 3481 434 
z
" transform="scale(0.015625)"/>
      <path id="DejaVuSans-63" d="M 3122 3366 
L 3122 2828 
Q 2878 2963 2633 3030 
Q 2388 3097 2138 3097 
Q 1578 3097 1268 2742 
Q 959 2388 959 1747 
Q 959 1106 1268 751 
Q 1578 397 2138 397 
Q 2388 397 2633 464 
Q 2878 531 3122 666 
L 3122 134 
Q 2881 22 2623 -34 
Q 2366 -91 2075 -91 
Q 1284 -91 818 406 
Q 353 903 353 1747 
Q 353 2603 823 3093 
Q 1294 3584 2113 3584 
Q 2378 3584 2631 3529 
Q 2884 3475 3122 3366 
z
" transform="scale(0.015625)"/>
     </defs>
     <use xlink:href="#DejaVuSans-41"/>
     <use xlink:href="#DejaVuSans-5f" transform="translate(68.408203 0)"/>
     <use xlink:href="#DejaVuSans-43" transform="translate(118.408203 0)"/>
     <use xlink:href="#DejaVuSans-31" transform="translate(188.232422 0)"/>
     <use xlink:href="#DejaVuSans-20" transform="translate(251.855469 0)"/>
     <use xlink:href="#DejaVuSans-43" transform="translate(283.642578 0)"/>
     <use xlink:href="#DejaVuSans-6f" transform="translate(353.466797 0)"/>
     <use xlink:href="#DejaVuSans-6e" transform="translate(414.648438 0)"/>
     <use xlink:href="#DejaVuSans-76" transform="translate(478.027344 0)"/>
     <use xlink:href="#DejaVuSans-65" transform="translate(537.207031 0)"/>
     <use xlink:href="#DejaVuSans-72" transform="translate(598.730469 0)"/>
     <use xlink:href="#DejaVuSans-67" transform="translate(638.09375 0)"/>
     <use xlink:href="#DejaVuSans-65" transform="translate(701.570312 0)"/>
     <use xlink:href="#DejaVuSans-6e" transform="translate(763.09375 0)"/>
     <use xlink:href="#DejaVuSans-63" transform="translate(826.472656 0)"/>
     <use xlink:href="#DejaVuSans-65" transform="translate(881.453125 0)"/>
    </g>
   </g>
   <g id="legend_1">
    <g id="line2d_25">
     <path d="M 615.326322 41.973678 
L 625.326322 41.973678 
L 635.326322 41.973678 
" style="fill: none; stroke: #2563eb; stroke-width: 2.5; stroke-linecap: square"/>
     <g>
      <use xlink:href="#m1e5fde5448" x="625.326322" y="41.973678" style="fill: #2563eb; stroke: #2563eb"/>
     </g>
    </g>
    <g id="text_19">
     <!-- Train F1 -->
     <g transform="translate(643.326322 45.473678) scale(0.1 -0.1)">
      <defs>
       <path id="DejaVuSans-54" d="M -19 4666 
L 3928 4666 
L 3928 4134 
L 2272 4134 
L 2272 0 
L 1638 0 
L 1638 4134 
L -19 4134 
L -19 4666 
z
" transform="scale(0.015625)"/>
       <path id="DejaVuSans-61" d="M 2194 1759 
Q 1497 1759 1228 1600 
Q 959 1441 959 1056 
Q 959 750 1161 570 
Q 1363 391 1709 391 
Q 2188 391 2477 730 
Q 2766 1069 2766 1631 
L 2766 1759 
L 2194 1759 
z
M 3341 1997 
L 3341 0 
L 2766 0 
L 2766 531 
Q 2569 213 2275 61 
Q 1981 -91 1556 -91 
Q 1019 -91 701 211 
Q 384 513 384 1019 
Q 384 1609 779 1909 
Q 1175 2209 1959 2209 
L 2766 2209 
L 2766 2266 
Q 2766 2663 2505 2880 
Q 2244 3097 1772 3097 
Q 1472 3097 1187 3025 
Q 903 2953 641 2809 
L 641 3341 
Q 956 3463 1253 3523 
Q 1550 3584 1831 3584 
Q 2591 3584 2966 3190 
Q 3341 2797 3341 1997 
z
" transform="scale(0.015625)"/>
       <path id="DejaVuSans-69" d="M 603 3500 
L 1178 3500 
L 1178 0 
L 603 0 
L 603 3500 
z
M 603 4863 
L 1178 4863 
L 1178 4134 
L 603 4134 
L 603 4863 
z
" transform="scale(0.015625)"/>
      </defs>
      <use xlink:href="#DejaVuSans-54"/>
      <use xlink:href="#DejaVuSans-72" transform="translate(46.333984 0)"/>
      <use xlink:href="#DejaVuSans-61" transform="translate(87.447266 0)"/>
      <use xlink:href="#DejaVuSans-69" transform="translate(148.726562 0)"/>
      <use xlink:href="#DejaVuSans-6e" transform="translate(176.509766 0)"/>
      <use xlink:href="#DejaVuSans-20" transform="translate(239.888672 0)"/>
      <use xlink:href="#DejaVuSans-46" transform="translate(271.675781 0)"/>
      <use xlink:href="#DejaVuSans-31" transform="translate(329.195312 0)"/>
     </g>
    </g>
    <g id="line2d_26">
     <path d="M 615.326322 56.651803 
L 625.326322 56.651803 
L 635.326322 56.651803 
" style="fill: none; stroke: #dc2626; stroke-width: 2.5; stroke-linecap: square"/>
     <g>
      <use xlink:href="#md59c7c00db" x="625.326322" y="56.651803" style="fill: #dc2626; stroke: #dc2626"/>
     </g>
    </g>
    <g id="text_20">
     <!-- Validation F1 -->
     <g transform="translate(643.326322 60.151803) scale(0.1 -0.1)">
      <defs>
       <path id="DejaVuSans-56" d="M 1831 0 
L 50 4666 
L 709 4666 
L 2188 738 
L 3669 4666 
L 4325 4666 
L 2547 0 
L 1831 0 
z
" transform="scale(0.015625)"/>
       <path id="DejaVuSans-6c" d="M 603 4863 
L 1178 4863 
L 1178 0 
L 603 0 
L 603 4863 
z
" transform="scale(0.015625)"/>
       <path id="DejaVuSans-74" d="M 1172 4494 
L 1172 3500 
L 2356 3500 
L 2356 3053 
L 1172 3053 
L 1172 1153 
Q 1172 725 1289 603 
Q 1406 481 1766 481 
L 2356 481 
L 2356 0 
L 1766 0 
Q 1100 0 847 248 
Q 594 497 594 1153 
L 594 3053 
L 172 3053 
L 172 3500 
L 594 3500 
L 594 4494 
L 1172 4494 
z
" transform="scale(0.015625)"/>
      </defs>
      <use xlink:href="#DejaVuSans-56"/>
      <use xlink:href="#DejaVuSans-61" transform="translate(60.658203 0)"/>
      <use xlink:href="#DejaVuSans-6c" transform="translate(121.9375 0)"/>
      <use xlink:href="#DejaVuSans-69" transform="translate(149.720703 0)"/>
      <use xlink:href="#DejaVuSans-64" transform="translate(177.503906 0)"/>
      <use xlink:href="#DejaVuSans-61" transform="translate(240.980469 0)"/>
      <use xlink:href="#DejaVuSans-74" transform="translate(302.259766 0)"/>
      <use xlink:href="#DejaVuSans-69" transform="translate(341.46875 0)"/>
      <use xlink:href="#DejaVuSans-6f" transform="translate(369.251953 0)"/>
      <use xlink:href="#DejaVuSans-6e" transform="translate(430.433594 0)"/>
      <use xlink:href="#DejaVuSans-20" transform="translate(493.8125 0)"/>
      <use xlink:href="#DejaVuSans-46" transform="translate(525.599609 0)"/>
      <use xlink:href="#DejaVuSans-31" transform="translate(583.119141 0)"/>
     </g>
    </g>
    <g id="line2d_27">
     <path d="M 615.326322 71.329927 
L 625.326322 71.329927 
L 635.326322 71.329927 
" style="fill: none; stroke: #059669; stroke-width: 2.5; stroke-linecap: square"/>
     <g>
      <use xlink:href="#m4716d7d0b9" x="625.326322" y="71.329927" style="fill: #059669; stroke: #059669"/>
     </g>
    </g>
    <g id="text_21">
     <!-- Test F1 -->
     <g transform="translate(643.326322 74.829927) scale(0.1 -0.1)">
      <defs>
       <path id="DejaVuSans-73" d="M 2834 3397 
L 2834 2853 
Q 2591 2978 2328 3040 
Q 2066 3103 1784 3103 
Q 1356 3103 1142 2972 
Q 928 2841 928 2578 
Q 928 2378 1081 2264 
Q 1234 2150 1697 2047 
L 1894 2003 
Q 2506 1872 2764 1633 
Q 3022 1394 3022 966 
Q 3022 478 2636 193 
Q 2250 -91 1575 -91 
Q 1294 -91 989 -36 
Q 684 19 347 128 
L 347 722 
Q 666 556 975 473 
Q 1284 391 1588 391 
Q 1994 391 2212 530 
Q 2431 669 2431 922 
Q 2431 1156 2273 1281 
Q 2116 1406 1581 1522 
L 1381 1569 
Q 847 1681 609 1914 
Q 372 2147 372 2553 
Q 372 3047 722 3315 
Q 1072 3584 1716 3584 
Q 2034 3584 2315 3537 
Q 2597 3491 2834 3397 
z
" transform="scale(0.015625)"/>
      </defs>
      <use xlink:href="#DejaVuSans-54"/>
      <use xlink:href="#DejaVuSans-65" transform="translate(44.083984 0)"/>
      <use xlink:href="#DejaVuSans-73" transform="translate(105.607422 0)"/>
      <use xlink:href="#DejaVuSans-74" transform="translate(157.707031 0)"/>
      <use xlink:href="#DejaVuSans-20" transform="translate(196.916016 0)"/>
      <use xlink:href="#DejaVuSans-46" transform="translate(228.703125 0)"/>
      <use xlink:href="#DejaVuSans-31" transform="translate(286.222656 0)"/>
     </g>
    </g>
   </g>
  </g>
 </g>
 <defs>
  <clipPath id="pfdbf1029f7">
   <rect x="39.58149" y="28.87524" width="677.41827" height="333.76827"/>
  </clipPath>
 </defs>
</svg>
