<?xml version="1.0" encoding="utf-8" standalone="no"?>
<!DOCTYPE svg PUBLIC "-//W3C//DTD SVG 1.1//EN"
  "http://www.w3.org/Graphics/SVG/1.1/DTD/svg11.dtd">
<svg xmlns:xlink="http://www.w3.org/1999/xlink" width="720pt" height="396pt" viewBox="0 0 720 396" xmlns="http://www.w3.org/2000/svg" version="1.1">
 <metadata>
  <rdf:RDF xmlns:dc="http://purl.org/dc/elements/1.1/" xmlns:cc="http://creativecommons.org/ns#" xmlns:rdf="http://www.w3.org/1999/02/22-rdf-syntax-ns#">
   <cc:Work>
    <dc:type rdf:resource="http://purl.org/dc/dcmitype/StillImage"/>
    <dc:date>2026-04-26T21:54:42.953861</dc:date>
    <dc:format>image/svg+xml</dc:format>
    <dc:creator>
     <cc:Agent>
      <dc:title>Matplotlib v3.10.8, https://matplotlib.org/</dc:title>
     </cc:Agent>
    </dc:creator>
   </cc:Work>
  </rdf:RDF>
 </metadata>
 <defs>
  <style type="text/css">*{stroke-linejoin: round; stroke-linecap: butt}</style>
 </defs>
 <g id="figure_1">
  <g id="patch_1">
   <path d="M 0 396 
L 720 396 
L 720 0 
L 0 0 
z
" style="fill: #f8fafc"/>
  </g>
  <g id="axes_1">
   <g id="patch_2">
    <path d="M 39.58149 362.64351 
L 716.99976 362.64351 
L 716.99976 28.87524 
L 39.58149 28.87524 
z
" style="fill: #ffffff"/>
   </g>
   <g id="matplotlib.axis_1">
    <g id="xtick_1">
     <g id="line2d_1">
      <defs>
       <path id="ma93e595ac2" d="M 0 0 
L 0 3.5 
" style="stroke: #000000; stroke-width: 0.8"/>
      </defs>
      <g>
       <use xlink:href="#ma93e595ac2" x="57.805173" y="362.64351" style="stroke: #000000; stroke-width: 0.8"/>
      </g>
     </g>
     <g id="text_1">
      <!-- 0 -->
      <g transform="translate(54.623923 377.241947) scale(0.1 -0.1)">
       <defs>
        <path id="DejaVuSans-30" d="M 2034 4250 
Q 1547 4250 1301 3770 
Q 1056 3291 1056 2328 
Q 1056 1369 1301 889 
Q 1547 409 2034 409 
Q 2525 409 2770 889 
Q 3016 1369 3016 2328 
Q 3016 3291 2770 3770 
Q 2525 4250 2034 4250 
z
M 2034 4750 
Q 2819 4750 3233 4129 
Q 3647 3509 3647 2328 
Q 3647 1150 3233 529 
Q 2819 -91 2034 -91 
Q 1250 -91 836 529 
Q 422 1150 422 2328 
Q 422 3509 836 4129 
Q 1250 4750 2034 4750 
z
" transform="scale(0.015625)"/>
       </defs>
       <use xlink:href="#DejaVuSans-30"/>
      </g>
     </g>
    </g>
    <g id="xtick_2">
     <g id="line2d_2">
      <g>
       <use xlink:href="#ma93e595ac2" x="133.213514" y="362.64351" style="stroke: #000000; stroke-width: 0.8"/>
      </g>
     </g>
     <g id="text_2">
      <!-- 6 -->
      <g transform="translate(130.032264 377.241947) scale(0.1 -0.1)">
       <defs>
        <path id="DejaVuSans-36" d="M 2113 2584 
Q 1688 2584 1439 2293 
Q 1191 2003 1191 1497 
Q 1191 994 1439 701 
Q 1688 409 2113 409 
Q 2538 409 2786 701 
Q 3034 994 3034 1497 
Q 3034 2003 2786 2293 
Q 2538 2584 2113 2584 
z
M 3366 4563 
L 3366 3988 
Q 3128 4100 2886 4159 
Q 2644 4219 2406 4219 
Q 1781 4219 1451 3797 
Q 1122 3375 1075 2522 
Q 1259 2794 1537 2939 
Q 1816 3084 2150 3084 
Q 2853 3084 3261 2657 
Q 3669 2231 3669 1497 
Q 3669 778 3244 343 
Q 2819 -91 2113 -91 
Q 1303 -91 875 529 
Q 447 1150 447 2328 
Q 447 3434 972 4092 
Q 1497 4750 2381 4750 
Q 2619 4750 2861 4703 
Q 3103 4656 3366 4563 
z
" transform="scale(0.015625)"/>
       </defs>
       <use xlink:href="#DejaVuSans-36"/>
      </g>
     </g>
    </g>
    <g id="xtick_3">
     <g id="line2d_3">
      <g>
       <use xlink:href="#ma93e595ac2" x="208.621856" y="362.64351" style="stroke: #000000; stroke-width: 0.8"/>
      </g>
     </g>
     <g id="text_3">
      <!-- 12 -->
      <g transform="translate(202.259356 377.241947) scale(0.1 -0.1)">
       <defs>
        <path id="DejaVuSans-31" d="M 794 531 
L 1825 531 
L 1825 4091 
L 703 3866 
L 703 4441 
L 1819 4666 
L 2450 4666 
L 2450 531 
L 3481 531 
L 3481 0 
L 794 0 
L 794 531 
z
" transform="scale(0.015625)"/>
        <path id="DejaVuSans-32" d="M 1228 531 
L 3431 531 
L 3431 0 
L 469 0 
L 469 531 
Q 828 903 1448 1529 
Q 2069 2156 2228 2338 
Q 2531 2678 2651 2914 
Q 2772 3150 2772 3378 
Q 2772 3750 2511 3984 
Q 2250 4219 1831 4219 
Q 1534 4219 1204 4116 
Q 875 4013 500 3803 
L 500 4441 
Q 881 4594 1212 4672 
Q 1544 4750 1819 4750 
Q 2544 4750 2975 4387 
Q 3406 4025 3406 3419 
Q 3406 3131 3298 2873 
Q 3191 2616 2906 2266 
Q 2828 2175 2409 1742 
Q 1991 1309 1228 531 
z
" transform="scale(0.015625)"/>
       </defs>
       <use xlink:href="#DejaVuSans-31"/>
       <use xlink:href="#DejaVuSans-32" transform="translate(63.623047 0)"/>
      </g>
     </g>
    </g>
    <g id="xtick_4">
     <g id="line2d_4">
      <g>
       <use xlink:href="#ma93e595ac2" x="284.030198" y="362.64351" style="stroke: #000000; stroke-width: 0.8"/>
      </g>
     </g>
     <g id="text_4">
      <!-- 18 -->
      <g transform="translate(277.667698 377.241947) scale(0.1 -0.1)">
       <defs>
        <path id="DejaVuSans-38" d="M 2034 2216 
Q 1584 2216 1326 1975 
Q 1069 1734 1069 1313 
Q 1069 891 1326 650 
Q 1584 409 2034 409 
Q 2484 409 2743 651 
Q 3003 894 3003 1313 
Q 3003 1734 2745 1975 
Q 2488 2216 2034 2216 
z
M 1403 2484 
Q 997 2584 770 2862 
Q 544 3141 544 3541 
Q 544 4100 942 4425 
Q 1341 4750 2034 4750 
Q 2731 4750 3128 4425 
Q 3525 4100 3525 3541 
Q 3525 3141 3298 2862 
Q 3072 2584 2669 2484 
Q 3125 2378 3379 2068 
Q 3634 1759 3634 1313 
Q 3634 634 3220 271 
Q 2806 -91 2034 -91 
Q 1263 -91 848 271 
Q 434 634 434 1313 
Q 434 1759 690 2068 
Q 947 2378 1403 2484 
z
M 1172 3481 
Q 1172 3119 1398 2916 
Q 1625 2713 2034 2713 
Q 2441 2713 2670 2916 
Q 2900 3119 2900 3481 
Q 2900 3844 2670 4047 
Q 2441 4250 2034 4250 
Q 1625 4250 1398 4047 
Q 1172 3844 1172 3481 
z
" transform="scale(0.015625)"/>
       </defs>
       <use xlink:href="#DejaVuSans-31"/>
       <use xlink:href="#DejaVuSans-38" transform="translate(63.623047 0)"/>
      </g>
     </g>
    </g>
    <g id="xtick_5">
     <g id="line2d_5">
      <g>
       <use xlink:href="#ma93e595ac2" x="359.43854" y="362.64351" style="stroke: #000000; stroke-width: 0.8"/>
      </g>
     </g>
     <g id="text_5">
      <!-- 24 -->
      <g transform="translate(353.07604 377.241947) scale(0.1 -0.1)">
       <defs>
        <path id="DejaVuSans-34" d="M 2419 4116 
L 825 1625 
L 2419 1625 
L 2419 4116 
z
M 2253 4666 
L 3047 4666 
L 3047 1625 
L 3713 1625 
L 3713 1100 
L 3047 1100 
L 3047 0 
L 2419 0 
L 2419 1100 
L 313 1100 
L 313 1709 
L 2253 4666 
z
" transform="scale(0.015625)"/>
       </defs>
       <use xlink:href="#DejaVuSans-32"/>
       <use xlink:href="#DejaVuSans-34" transform="translate(63.623047 0)"/>
      </g>
     </g>
    </g>
    <g id="xtick_6">
     <g id="line2d_6">
      <g>
       <use xlink:href="#ma93e595ac2" x="434.846881" y="362.64351" style="stroke: #000000; stroke-width: 0.8"/>
      </g>
     </g>
     <g id="text_6">
      <!-- 30 -->
      <g transform="translate(428.484381 377.241947) scale(0.1 -0.1)">
       <defs>
        <path id="DejaVuSans-33" d="M 2597 2516 
Q 3050 2419 3304 2112 
Q 3559 1806 3559 1356 
Q 3559 666 3084 287 
Q 2609 -91 1734 -91 
Q 1441 -91 1130 -33 
Q 819 25 488 141 
L 488 750 
Q 750 597 1062 519 
Q 1375 441 1716 441 
Q 2309 441 2620 675 
Q 2931 909 2931 1356 
Q 2931 1769 2642 2001 
Q 2353 2234 1838 2234 
L 1294 2234 
L 1294 2753 
L 1863 2753 
Q 2328 2753 2575 2939 
Q 2822 3125 2822 3475 
Q 2822 3834 2567 4026 
Q 2313 4219 1838 4219 
Q 1578 4219 1281 4162 
Q 984 4106 628 3988 
L 628 4550 
Q 988 4650 1302 4700 
Q 1616 4750 1894 4750 
Q 2613 4750 3031 4423 
Q 3450 4097 3450 3541 
Q 3450 3153 3228 2886 
Q 3006 2619 2597 2516 
z
" transform="scale(0.015625)"/>
       </defs>
       <use xlink:href="#DejaVuSans-33"/>
       <use xlink:href="#DejaVuSans-30" transform="translate(63.623047 0)"/>
      </g>
     </g>
    </g>
    <g id="xtick_7">
     <g id="line2d_7">
      <g>
       <use xlink:href="#ma93e595ac2" x="510.255223" y="362.64351" style="stroke: #000000; stroke-width: 0.8"/>
      </g>
     </g>
     <g id="text_7">
      <!-- 36 -->
      <g transform="translate(503.892723 377.241947) scale(0.1 -0.1)">
       <use xlink:href="#DejaVuSans-33"/>
       <use xlink:href="#DejaVuSans-36" transform="translate(63.623047 0)"/>
      </g>
     </g>
    </g>
    <g id="xtick_8">
     <g id="line2d_8">
      <g>
       <use xlink:href="#ma93e595ac2" x="585.663565" y="362.64351" style="stroke: #000000; stroke-width: 0.8"/>
      </g>
     </g>
     <g id="text_8">
      <!-- 42 -->
      <g transform="translate(579.301065 377.241947) scale(0.1 -0.1)">
       <use xlink:href="#DejaVuSans-34"/>
       <use xlink:href="#DejaVuSans-32" transform="translate(63.623047 0)"/>
      </g>
     </g>
    </g>
    <g id="xtick_9">
     <g id="line2d_9">
      <g>
       <use xlink:href="#ma93e595ac2" x="661.071907" y="362.64351" style="stroke: #000000; stroke-width: 0.8"/>
      </g>
     </g>
     <g id="text_9">
      <!-- 48 -->
      <g transform="translate(654.709407 377.241947) scale(0.1 -0.1)">
       <use xlink:href="#DejaVuSans-34"/>
       <use xlink:href="#DejaVuSans-38" transform="translate(63.623047 0)"/>
      </g>
     </g>
    </g>
    <g id="text_10">
     <!-- Round -->
     <g transform="translate(362.470312 390.920073) scale(0.1 -0.1)">
      <defs>
       <path id="DejaVuSans-52" d="M 2841 2188 
Q 3044 2119 3236 1894 
Q 3428 1669 3622 1275 
L 4263 0 
L 3584 0 
L 2988 1197 
Q 2756 1666 2539 1819 
Q 2322 1972 1947 1972 
L 1259 1972 
L 1259 0 
L 628 0 
L 628 4666 
L 2053 4666 
Q 2853 4666 3247 4331 
Q 3641 3997 3641 3322 
Q 3641 2881 3436 2590 
Q 3231 2300 2841 2188 
z
M 1259 4147 
L 1259 2491 
L 2053 2491 
Q 2509 2491 2742 2702 
Q 2975 2913 2975 3322 
Q 2975 3731 2742 3939 
Q 2509 4147 2053 4147 
L 1259 4147 
z
" transform="scale(0.015625)"/>
       <path id="DejaVuSans-6f" d="M 1959 3097 
Q 1497 3097 1228 2736 
Q 959 2375 959 1747 
Q 959 1119 1226 758 
Q 1494 397 1959 397 
Q 2419 397 2687 759 
Q 2956 1122 2956 1747 
Q 2956 2369 2687 2733 
Q 2419 3097 1959 3097 
z
M 1959 3584 
Q 2709 3584 3137 3096 
Q 3566 2609 3566 1747 
Q 3566 888 3137 398 
Q 2709 -91 1959 -91 
Q 1206 -91 779 398 
Q 353 888 353 1747 
Q 353 2609 779 3096 
Q 1206 3584 1959 3584 
z
" transform="scale(0.015625)"/>
       <path id="DejaVuSans-75" d="M 544 1381 
L 544 3500 
L 1119 3500 
L 1119 1403 
Q 1119 906 1312 657 
Q 1506 409 1894 409 
Q 2359 409 2629 706 
Q 2900 1003 2900 1516 
L 2900 3500 
L 3475 3500 
L 3475 0 
L 2900 0 
L 2900 538 
Q 2691 219 2414 64 
Q 2138 -91 1772 -91 
Q 1169 -91 856 284 
Q 544 659 544 1381 
z
M 1991 3584 
L 1991 3584 
z
" transform="scale(0.015625)"/>
       <path id="DejaVuSans-6e" d="M 3513 2113 
L 3513 0 
L 2938 0 
L 2938 2094 
Q 2938 2591 2744 2837 
Q 2550 3084 2163 3084 
Q 1697 3084 1428 2787 
Q 1159 2491 1159 1978 
L 1159 0 
L 581 0 
L 581 3500 
L 1159 3500 
L 1159 2956 
Q 1366 3272 1645 3428 
Q 1925 3584 2291 3584 
Q 2894 3584 3203 3211 
Q 3513 2838 3513 2113 
z
" transform="scale(0.015625)"/>
       <path id="DejaVuSans-64" d="M 2906 2969 
L 2906 4863 
L 3481 4863 
L 3481 0 
L 2906 0 
L 2906 525 
Q 2725 213 2448 61 
Q 2172 -91 1784 -91 
Q 1150 -91 751 415 
Q 353 922 353 1747 
Q 353 2572 751 3078 
Q 1150 3584 1784 3584 
Q 2172 3584 2448 3432 
Q 2725 3281 2906 2969 
z
M 947 1747 
Q 947 1113 1208 752 
Q 1469 391 1925 391 
Q 2381 391 2643 752 
Q 2906 1113 2906 1747 
Q 2906 2381 2643 2742 
Q 2381 3103 1925 3103 
Q 1469 3103 1208 2742 
Q 947 2381 947 1747 
z
" transform="scale(0.015625)"/>
      </defs>
      <use xlink:href="#DejaVuSans-52"/>
      <use xlink:href="#DejaVuSans-6f" transform="translate(64.982422 0)"/>
      <use xlink:href="#DejaVuSans-75" transform="translate(126.164062 0)"/>
      <use xlink:href="#DejaVuSans-6e" transform="translate(189.542969 0)"/>
      <use xlink:href="#DejaVuSans-64" transform="translate(252.921875 0)"/>
     </g>
    </g>
   </g>
   <g id="matplotlib.axis_2">
    <g id="ytick_1">
     <g id="line2d_10">
      <path d="M 39.58149 362.64351 
L 716.99976 362.64351 
" clip-path="url(#pcef6095731)" style="fill: none; stroke: #b0b0b0; stroke-opacity: 0.28; stroke-width: 0.8; stroke-linecap: square"/>
     </g>
     <g id="line2d_11">
      <defs>
       <path id="m21accc2356" d="M 0 0 
L -3.5 0 
" style="stroke: #000000; stroke-width: 0.8"/>
      </defs>
      <g>
       <use xlink:href="#m21accc2356" x="39.58149" y="362.64351" style="stroke: #000000; stroke-width: 0.8"/>
      </g>
     </g>
     <g id="text_11">
      <!-- 0.0 -->
      <g transform="translate(16.678365 366.442729) scale(0.1 -0.1)">
       <defs>
        <path id="DejaVuSans-2e" d="M 684 794 
L 1344 794 
L 1344 0 
L 684 0 
L 684 794 
z
" transform="scale(0.015625)"/>
       </defs>
       <use xlink:href="#DejaVuSans-30"/>
       <use xlink:href="#DejaVuSans-2e" transform="translate(63.623047 0)"/>
       <use xlink:href="#DejaVuSans-30" transform="translate(95.410156 0)"/>
      </g>
     </g>
    </g>
    <g id="ytick_2">
     <g id="line2d_12">
      <path d="M 39.58149 295.889856 
L 716.99976 295.889856 
" clip-path="url(#pcef6095731)" style="fill: none; stroke: #b0b0b0; stroke-opacity: 0.28; stroke-width: 0.8; stroke-linecap: square"/>
     </g>
     <g id="line2d_13">
      <g>
       <use xlink:href="#m21accc2356" x="39.58149" y="295.889856" style="stroke: #000000; stroke-width: 0.8"/>
      </g>
     </g>
     <g id="text_12">
      <!-- 0.2 -->
      <g transform="translate(16.678365 299.689075) scale(0.1 -0.1)">
       <use xlink:href="#DejaVuSans-30"/>
       <use xlink:href="#DejaVuSans-2e" transform="translate(63.623047 0)"/>
       <use xlink:href="#DejaVuSans-32" transform="translate(95.410156 0)"/>
      </g>
     </g>
    </g>
    <g id="ytick_3">
     <g id="line2d_14">
      <path d="M 39.58149 229.136202 
L 716.99976 229.136202 
" clip-path="url(#pcef6095731)" style="fill: none; stroke: #b0b0b0; stroke-opacity: 0.28; stroke-width: 0.8; stroke-linecap: square"/>
     </g>
     <g id="line2d_15">
      <g>
       <use xlink:href="#m21accc2356" x="39.58149" y="229.136202" style="stroke: #000000; stroke-width: 0.8"/>
      </g>
     </g>
     <g id="text_13">
      <!-- 0.4 -->
      <g transform="translate(16.678365 232.935421) scale(0.1 -0.1)">
       <use xlink:href="#DejaVuSans-30"/>
       <use xlink:href="#DejaVuSans-2e" transform="translate(63.623047 0)"/>
       <use xlink:href="#DejaVuSans-34" transform="translate(95.410156 0)"/>
      </g>
     </g>
    </g>
    <g id="ytick_4">
     <g id="line2d_16">
      <path d="M 39.58149 162.382548 
L 716.99976 162.382548 
" clip-path="url(#pcef6095731)" style="fill: none; stroke: #b0b0b0; stroke-opacity: 0.28; stroke-width: 0.8; stroke-linecap: square"/>
     </g>
     <g id="line2d_17">
      <g>
       <use xlink:href="#m21accc2356" x="39.58149" y="162.382548" style="stroke: #000000; stroke-width: 0.8"/>
      </g>
     </g>
     <g id="text_14">
      <!-- 0.6 -->
      <g transform="translate(16.678365 166.181767) scale(0.1 -0.1)">
       <use xlink:href="#DejaVuSans-30"/>
       <use xlink:href="#DejaVuSans-2e" transform="translate(63.623047 0)"/>
       <use xlink:href="#DejaVuSans-36" transform="translate(95.410156 0)"/>
      </g>
     </g>
    </g>
    <g id="ytick_5">
     <g id="line2d_18">
      <path d="M 39.58149 95.628894 
L 716.99976 95.628894 
" clip-path="url(#pcef6095731)" style="fill: none; stroke: #b0b0b0; stroke-opacity: 0.28; stroke-width: 0.8; stroke-linecap: square"/>
     </g>
     <g id="line2d_19">
      <g>
       <use xlink:href="#m21accc2356" x="39.58149" y="95.628894" style="stroke: #000000; stroke-width: 0.8"/>
      </g>
     </g>
     <g id="text_15">
      <!-- 0.8 -->
      <g transform="translate(16.678365 99.428113) scale(0.1 -0.1)">
       <use xlink:href="#DejaVuSans-30"/>
       <use xlink:href="#DejaVuSans-2e" transform="translate(63.623047 0)"/>
       <use xlink:href="#DejaVuSans-38" transform="translate(95.410156 0)"/>
      </g>
     </g>
    </g>
    <g id="ytick_6">
     <g id="line2d_20">
      <path d="M 39.58149 28.87524 
L 716.99976 28.87524 
" clip-path="url(#pcef6095731)" style="fill: none; stroke: #b0b0b0; stroke-opacity: 0.28; stroke-width: 0.8; stroke-linecap: square"/>
     </g>
     <g id="line2d_21">
      <g>
       <use xlink:href="#m21accc2356" x="39.58149" y="28.87524" style="stroke: #000000; stroke-width: 0.8"/>
      </g>
     </g>
     <g id="text_16">
      <!-- 1.0 -->
      <g transform="translate(16.678365 32.674459) scale(0.1 -0.1)">
       <use xlink:href="#DejaVuSans-31"/>
       <use xlink:href="#DejaVuSans-2e" transform="translate(63.623047 0)"/>
       <use xlink:href="#DejaVuSans-30" transform="translate(95.410156 0)"/>
      </g>
     </g>
    </g>
    <g id="text_17">
     <!-- F1 -->
     <g transform="translate(10.598677 201.816406) rotate(-90) scale(0.1 -0.1)">
      <defs>
       <path id="DejaVuSans-46" d="M 628 4666 
L 3309 4666 
L 3309 4134 
L 1259 4134 
L 1259 2759 
L 3109 2759 
L 3109 2228 
L 1259 2228 
L 1259 0 
L 628 0 
L 628 4666 
z
" transform="scale(0.015625)"/>
      </defs>
      <use xlink:href="#DejaVuSans-46"/>
      <use xlink:href="#DejaVuSans-31" transform="translate(57.519531 0)"/>
     </g>
    </g>
   </g>
   <g id="line2d_22">
    <path d="M 70.37323 361.716045 
L 82.941287 360.150388 
L 95.509343 163.651101 
L 108.0774 116.521195 
L 120.645457 98.805326 
L 133.213514 97.685699 
L 145.781571 97.904614 
L 158.349628 98.172479 
L 170.917685 98.507336 
L 183.485742 98.653139 
L 196.053799 98.720297 
L 208.621856 98.862437 
L 221.189913 99.164327 
L 233.75797 99.975502 
L 246.326027 100.409001 
L 258.894084 100.622567 
L 271.462141 100.565066 
L 284.030198 100.612987 
L 296.598255 100.894387 
L 309.166312 101.242698 
L 321.734369 101.669112 
L 334.302426 101.108786 
L 346.870483 100.591708 
L 359.43854 100.437337 
L 372.006597 100.401608 
L 384.574653 100.724939 
L 397.14271 100.851868 
L 409.710767 101.575119 
L 422.278824 101.123152 
L 434.846881 100.778655 
L 447.414938 100.590038 
L 459.982995 101.082753 
L 472.551052 100.49672 
L 485.119109 99.971391 
L 497.687166 99.549968 
L 510.255223 99.073528 
L 522.82328 98.27707 
L 535.391337 97.667402 
L 547.959394 97.057631 
L 560.527451 97.195348 
L 573.095508 96.730998 
L 585.663565 97.665225 
L 598.231622 98.771422 
L 610.799679 98.660347 
L 623.367736 99.049052 
L 635.935793 98.677885 
L 648.50385 98.693802 
L 661.071907 98.099131 
L 673.639963 97.628419 
L 686.20802 98.36931 
" clip-path="url(#pcef6095731)" style="fill: none; stroke: #2563eb; stroke-width: 2.5; stroke-linecap: square"/>
    <defs>
     <path id="m213fc566e9" d="M 0 2.5 
C 0.663008 2.5 1.29895 2.236584 1.767767 1.767767 
C 2.236584 1.29895 2.5 0.663008 2.5 0 
C 2.5 -0.663008 2.236584 -1.29895 1.767767 -1.767767 
C 1.29895 -2.236584 0.663008 -2.5 0 -2.5 
C -0.663008 -2.5 -1.29895 -2.236584 -1.767767 -1.767767 
C -2.236584 -1.29895 -2.5 -0.663008 -2.5 0 
C -2.5 0.663008 -2.236584 1.29895 -1.767767 1.767767 
C -1.29895 2.236584 -0.663008 2.5 0 2.5 
z
" style="stroke: #2563eb"/>
    </defs>
    <g clip-path="url(#pcef6095731)">
     <use xlink:href="#m213fc566e9" x="70.37323" y="361.716045" style="fill: #2563eb; stroke: #2563eb"/>
     <use xlink:href="#m213fc566e9" x="82.941287" y="360.150388" style="fill: #2563eb; stroke: #2563eb"/>
     <use xlink:href="#m213fc566e9" x="95.509343" y="163.651101" style="fill: #2563eb; stroke: #2563eb"/>
     <use xlink:href="#m213fc566e9" x="108.0774" y="116.521195" style="fill: #2563eb; stroke: #2563eb"/>
     <use xlink:href="#m213fc566e9" x="120.645457" y="98.805326" style="fill: #2563eb; stroke: #2563eb"/>
     <use xlink:href="#m213fc566e9" x="133.213514" y="97.685699" style="fill: #2563eb; stroke: #2563eb"/>
     <use xlink:href="#m213fc566e9" x="145.781571" y="97.904614" style="fill: #2563eb; stroke: #2563eb"/>
     <use xlink:href="#m213fc566e9" x="158.349628" y="98.172479" style="fill: #2563eb; stroke: #2563eb"/>
     <use xlink:href="#m213fc566e9" x="170.917685" y="98.507336" style="fill: #2563eb; stroke: #2563eb"/>
     <use xlink:href="#m213fc566e9" x="183.485742" y="98.653139" style="fill: #2563eb; stroke: #2563eb"/>
     <use xlink:href="#m213fc566e9" x="196.053799" y="98.720297" style="fill: #2563eb; stroke: #2563eb"/>
     <use xlink:href="#m213fc566e9" x="208.621856" y="98.862437" style="fill: #2563eb; stroke: #2563eb"/>
     <use xlink:href="#m213fc566e9" x="221.189913" y="99.164327" style="fill: #2563eb; stroke: #2563eb"/>
     <use xlink:href="#m213fc566e9" x="233.75797" y="99.975502" style="fill: #2563eb; stroke: #2563eb"/>
     <use xlink:href="#m213fc566e9" x="246.326027" y="100.409001" style="fill: #2563eb; stroke: #2563eb"/>
     <use xlink:href="#m213fc566e9" x="258.894084" y="100.622567" style="fill: #2563eb; stroke: #2563eb"/>
     <use xlink:href="#m213fc566e9" x="271.462141" y="100.565066" style="fill: #2563eb; stroke: #2563eb"/>
     <use xlink:href="#m213fc566e9" x="284.030198" y="100.612987" style="fill: #2563eb; stroke: #2563eb"/>
     <use xlink:href="#m213fc566e9" x="296.598255" y="100.894387" style="fill: #2563eb; stroke: #2563eb"/>
     <use xlink:href="#m213fc566e9" x="309.166312" y="101.242698" style="fill: #2563eb; stroke: #2563eb"/>
     <use xlink:href="#m213fc566e9" x="321.734369" y="101.669112" style="fill: #2563eb; stroke: #2563eb"/>
     <use xlink:href="#m213fc566e9" x="334.302426" y="101.108786" style="fill: #2563eb; stroke: #2563eb"/>
     <use xlink:href="#m213fc566e9" x="346.870483" y="100.591708" style="fill: #2563eb; stroke: #2563eb"/>
     <use xlink:href="#m213fc566e9" x="359.43854" y="100.437337" style="fill: #2563eb; stroke: #2563eb"/>
     <use xlink:href="#m213fc566e9" x="372.006597" y="100.401608" style="fill: #2563eb; stroke: #2563eb"/>
     <use xlink:href="#m213fc566e9" x="384.574653" y="100.724939" style="fill: #2563eb; stroke: #2563eb"/>
     <use xlink:href="#m213fc566e9" x="397.14271" y="100.851868" style="fill: #2563eb; stroke: #2563eb"/>
     <use xlink:href="#m213fc566e9" x="409.710767" y="101.575119" style="fill: #2563eb; stroke: #2563eb"/>
     <use xlink:href="#m213fc566e9" x="422.278824" y="101.123152" style="fill: #2563eb; stroke: #2563eb"/>
     <use xlink:href="#m213fc566e9" x="434.846881" y="100.778655" style="fill: #2563eb; stroke: #2563eb"/>
     <use xlink:href="#m213fc566e9" x="447.414938" y="100.590038" style="fill: #2563eb; stroke: #2563eb"/>
     <use xlink:href="#m213fc566e9" x="459.982995" y="101.082753" style="fill: #2563eb; stroke: #2563eb"/>
     <use xlink:href="#m213fc566e9" x="472.551052" y="100.49672" style="fill: #2563eb; stroke: #2563eb"/>
     <use xlink:href="#m213fc566e9" x="485.119109" y="99.971391" style="fill: #2563eb; stroke: #2563eb"/>
     <use xlink:href="#m213fc566e9" x="497.687166" y="99.549968" style="fill: #2563eb; stroke: #2563eb"/>
     <use xlink:href="#m213fc566e9" x="510.255223" y="99.073528" style="fill: #2563eb; stroke: #2563eb"/>
     <use xlink:href="#m213fc566e9" x="522.82328" y="98.27707" style="fill: #2563eb; stroke: #2563eb"/>
     <use xlink:href="#m213fc566e9" x="535.391337" y="97.667402" style="fill: #2563eb; stroke: #2563eb"/>
     <use xlink:href="#m213fc566e9" x="547.959394" y="97.057631" style="fill: #2563eb; stroke: #2563eb"/>
     <use xlink:href="#m213fc566e9" x="560.527451" y="97.195348" style="fill: #2563eb; stroke: #2563eb"/>
     <use xlink:href="#m213fc566e9" x="573.095508" y="96.730998" style="fill: #2563eb; stroke: #2563eb"/>
     <use xlink:href="#m213fc566e9" x="585.663565" y="97.665225" style="fill: #2563eb; stroke: #2563eb"/>
     <use xlink:href="#m213fc566e9" x="598.231622" y="98.771422" style="fill: #2563eb; stroke: #2563eb"/>
     <use xlink:href="#m213fc566e9" x="610.799679" y="98.660347" style="fill: #2563eb; stroke: #2563eb"/>
     <use xlink:href="#m213fc566e9" x="623.367736" y="99.049052" style="fill: #2563eb; stroke: #2563eb"/>
     <use xlink:href="#m213fc566e9" x="635.935793" y="98.677885" style="fill: #2563eb; stroke: #2563eb"/>
     <use xlink:href="#m213fc566e9" x="648.50385" y="98.693802" style="fill: #2563eb; stroke: #2563eb"/>
     <use xlink:href="#m213fc566e9" x="661.071907" y="98.099131" style="fill: #2563eb; stroke: #2563eb"/>
     <use xlink:href="#m213fc566e9" x="673.639963" y="97.628419" style="fill: #2563eb; stroke: #2563eb"/>
     <use xlink:href="#m213fc566e9" x="686.20802" y="98.36931" style="fill: #2563eb; stroke: #2563eb"/>
    </g>
   </g>
   <g id="line2d_23">
    <path d="M 70.37323 74.02986 
L 82.941287 76.824698 
L 95.509343 76.812024 
L 108.0774 76.074255 
L 120.645457 75.388532 
L 133.213514 74.26386 
L 145.781571 73.88173 
L 158.349628 73.707646 
L 170.917685 73.799899 
L 183.485742 73.863813 
L 196.053799 73.956304 
L 208.621856 74.184122 
L 221.189913 74.262288 
L 233.75797 74.2497 
L 246.326027 74.2497 
L 258.894084 74.198926 
L 271.462141 74.129833 
L 284.030198 74.063622 
L 296.598255 73.951032 
L 309.166312 73.850979 
L 321.734369 73.606517 
L 334.302426 73.444608 
L 346.870483 73.159035 
L 359.43854 72.931469 
L 372.006597 72.818528 
L 384.574653 72.840473 
L 397.14271 73.044123 
L 409.710767 73.087904 
L 422.278824 73.523732 
L 434.846881 73.868534 
L 447.414938 74.316013 
L 459.982995 74.631932 
L 472.551052 74.509595 
L 485.119109 74.287881 
L 497.687166 74.047687 
L 510.255223 73.820772 
L 522.82328 73.697603 
L 535.391337 73.600295 
L 547.959394 73.347513 
L 560.527451 73.268239 
L 573.095508 73.174166 
L 585.663565 73.03087 
L 598.231622 72.880442 
L 610.799679 72.808711 
L 623.367736 72.723855 
L 635.935793 72.645798 
L 648.50385 72.597898 
L 661.071907 72.564697 
L 673.639963 72.510653 
L 686.20802 72.465076 
" clip-path="url(#pcef6095731)" style="fill: none; stroke: #dc2626; stroke-width: 2.5; stroke-linecap: square"/>
    <defs>
     <path id="m8d5aa2a574" d="M 0 2.5 
C 0.663008 2.5 1.29895 2.236584 1.767767 1.767767 
C 2.236584 1.29895 2.5 0.663008 2.5 0 
C 2.5 -0.663008 2.236584 -1.29895 1.767767 -1.767767 
C 1.29895 -2.236584 0.663008 -2.5 0 -2.5 
C -0.663008 -2.5 -1.29895 -2.236584 -1.767767 -1.767767 
C -2.236584 -1.29895 -2.5 -0.663008 -2.5 0 
C -2.5 0.663008 -2.236584 1.29895 -1.767767 1.767767 
C -1.29895 2.236584 -0.663008 2.5 0 2.5 
z
" style="stroke: #dc2626"/>
    </defs>
    <g clip-path="url(#pcef6095731)">
     <use xlink:href="#m8d5aa2a574" x="70.37323" y="74.02986" style="fill: #dc2626; stroke: #dc2626"/>
     <use xlink:href="#m8d5aa2a574" x="82.941287" y="76.824698" style="fill: #dc2626; stroke: #dc2626"/>
     <use xlink:href="#m8d5aa2a574" x="95.509343" y="76.812024" style="fill: #dc2626; stroke: #dc2626"/>
     <use xlink:href="#m8d5aa2a574" x="108.0774" y="76.074255" style="fill: #dc2626; stroke: #dc2626"/>
     <use xlink:href="#m8d5aa2a574" x="120.645457" y="75.388532" style="fill: #dc2626; stroke: #dc2626"/>
     <use xlink:href="#m8d5aa2a574" x="133.213514" y="74.26386" style="fill: #dc2626; stroke: #dc2626"/>
     <use xlink:href="#m8d5aa2a574" x="145.781571" y="73.88173" style="fill: #dc2626; stroke: #dc2626"/>
     <use xlink:href="#m8d5aa2a574" x="158.349628" y="73.707646" style="fill: #dc2626; stroke: #dc2626"/>
     <use xlink:href="#m8d5aa2a574" x="170.917685" y="73.799899" style="fill: #dc2626; stroke: #dc2626"/>
     <use xlink:href="#m8d5aa2a574" x="183.485742" y="73.863813" style="fill: #dc2626; stroke: #dc2626"/>
     <use xlink:href="#m8d5aa2a574" x="196.053799" y="73.956304" style="fill: #dc2626; stroke: #dc2626"/>
     <use xlink:href="#m8d5aa2a574" x="208.621856" y="74.184122" style="fill: #dc2626; stroke: #dc2626"/>
     <use xlink:href="#m8d5aa2a574" x="221.189913" y="74.262288" style="fill: #dc2626; stroke: #dc2626"/>
     <use xlink:href="#m8d5aa2a574" x="233.75797" y="74.2497" style="fill: #dc2626; stroke: #dc2626"/>
     <use xlink:href="#m8d5aa2a574" x="246.326027" y="74.2497" style="fill: #dc2626; stroke: #dc2626"/>
     <use xlink:href="#m8d5aa2a574" x="258.894084" y="74.198926" style="fill: #dc2626; stroke: #dc2626"/>
     <use xlink:href="#m8d5aa2a574" x="271.462141" y="74.129833" style="fill: #dc2626; stroke: #dc2626"/>
     <use xlink:href="#m8d5aa2a574" x="284.030198" y="74.063622" style="fill: #dc2626; stroke: #dc2626"/>
     <use xlink:href="#m8d5aa2a574" x="296.598255" y="73.951032" style="fill: #dc2626; stroke: #dc2626"/>
     <use xlink:href="#m8d5aa2a574" x="309.166312" y="73.850979" style="fill: #dc2626; stroke: #dc2626"/>
     <use xlink:href="#m8d5aa2a574" x="321.734369" y="73.606517" style="fill: #dc2626; stroke: #dc2626"/>
     <use xlink:href="#m8d5aa2a574" x="334.302426" y="73.444608" style="fill: #dc2626; stroke: #dc2626"/>
     <use xlink:href="#m8d5aa2a574" x="346.870483" y="73.159035" style="fill: #dc2626; stroke: #dc2626"/>
     <use xlink:href="#m8d5aa2a574" x="359.43854" y="72.931469" style="fill: #dc2626; stroke: #dc2626"/>
     <use xlink:href="#m8d5aa2a574" x="372.006597" y="72.818528" style="fill: #dc2626; stroke: #dc2626"/>
     <use xlink:href="#m8d5aa2a574" x="384.574653" y="72.840473" style="fill: #dc2626; stroke: #dc2626"/>
     <use xlink:href="#m8d5aa2a574" x="397.14271" y="73.044123" style="fill: #dc2626; stroke: #dc2626"/>
     <use xlink:href="#m8d5aa2a574" x="409.710767" y="73.087904" style="fill: #dc2626; stroke: #dc2626"/>
     <use xlink:href="#m8d5aa2a574" x="422.278824" y="73.523732" style="fill: #dc2626; stroke: #dc2626"/>
     <use xlink:href="#m8d5aa2a574" x="434.846881" y="73.868534" style="fill: #dc2626; stroke: #dc2626"/>
     <use xlink:href="#m8d5aa2a574" x="447.414938" y="74.316013" style="fill: #dc2626; stroke: #dc2626"/>
     <use xlink:href="#m8d5aa2a574" x="459.982995" y="74.631932" style="fill: #dc2626; stroke: #dc2626"/>
     <use xlink:href="#m8d5aa2a574" x="472.551052" y="74.509595" style="fill: #dc2626; stroke: #dc2626"/>
     <use xlink:href="#m8d5aa2a574" x="485.119109" y="74.287881" style="fill: #dc2626; stroke: #dc2626"/>
     <use xlink:href="#m8d5aa2a574" x="497.687166" y="74.047687" style="fill: #dc2626; stroke: #dc2626"/>
     <use xlink:href="#m8d5aa2a574" x="510.255223" y="73.820772" style="fill: #dc2626; stroke: #dc2626"/>
     <use xlink:href="#m8d5aa2a574" x="522.82328" y="73.697603" style="fill: #dc2626; stroke: #dc2626"/>
     <use xlink:href="#m8d5aa2a574" x="535.391337" y="73.600295" style="fill: #dc2626; stroke: #dc2626"/>
     <use xlink:href="#m8d5aa2a574" x="547.959394" y="73.347513" style="fill: #dc2626; stroke: #dc2626"/>
     <use xlink:href="#m8d5aa2a574" x="560.527451" y="73.268239" style="fill: #dc2626; stroke: #dc2626"/>
     <use xlink:href="#m8d5aa2a574" x="573.095508" y="73.174166" style="fill: #dc2626; stroke: #dc2626"/>
     <use xlink:href="#m8d5aa2a574" x="585.663565" y="73.03087" style="fill: #dc2626; stroke: #dc2626"/>
     <use xlink:href="#m8d5aa2a574" x="598.231622" y="72.880442" style="fill: #dc2626; stroke: #dc2626"/>
     <use xlink:href="#m8d5aa2a574" x="610.799679" y="72.808711" style="fill: #dc2626; stroke: #dc2626"/>
     <use xlink:href="#m8d5aa2a574" x="623.367736" y="72.723855" style="fill: #dc2626; stroke: #dc2626"/>
     <use xlink:href="#m8d5aa2a574" x="635.935793" y="72.645798" style="fill: #dc2626; stroke: #dc2626"/>
     <use xlink:href="#m8d5aa2a574" x="648.50385" y="72.597898" style="fill: #dc2626; stroke: #dc2626"/>
     <use xlink:href="#m8d5aa2a574" x="661.071907" y="72.564697" style="fill: #dc2626; stroke: #dc2626"/>
     <use xlink:href="#m8d5aa2a574" x="673.639963" y="72.510653" style="fill: #dc2626; stroke: #dc2626"/>
     <use xlink:href="#m8d5aa2a574" x="686.20802" y="72.465076" style="fill: #dc2626; stroke: #dc2626"/>
    </g>
   </g>
   <g id="line2d_24">
    <path d="M 70.37323 70.173174 
L 82.941287 70.553339 
L 95.509343 70.562763 
L 108.0774 70.595226 
L 120.645457 70.639228 
L 133.213514 70.221487 
L 145.781571 70.240222 
L 158.349628 70.217326 
L 170.917685 70.221336 
L 183.485742 70.230779 
L 196.053799 70.230779 
L 208.621856 70.187892 
L 221.189913 70.374928 
L 233.75797 70.365493 
L 246.326027 70.337189 
L 258.894084 70.327755 
L 271.462141 70.310973 
L 284.030198 70.265895 
L 296.598255 70.247034 
L 309.166312 70.228175 
L 321.734369 70.185188 
L 334.302426 70.094066 
L 346.870483 70.010251 
L 359.43854 69.961003 
L 372.006597 70.019921 
L 384.574653 70.054442 
L 397.14271 70.257164 
L 409.710767 70.494266 
L 422.278824 71.201806 
L 434.846881 71.460595 
L 447.414938 71.522195 
L 459.982995 72.73813 
L 472.551052 72.634788 
L 485.119109 72.68108 
L 497.687166 72.697019 
L 510.255223 72.58645 
L 522.82328 72.5821 
L 535.391337 72.712295 
L 547.959394 72.587142 
L 560.527451 72.539491 
L 573.095508 72.501225 
L 585.663565 72.481736 
L 598.231622 72.44129 
L 610.799679 72.423957 
L 623.367736 72.456474 
L 635.935793 72.388561 
L 648.50385 72.381336 
L 661.071907 72.381336 
L 673.639963 72.390727 
L 686.20802 72.381336 
" clip-path="url(#pcef6095731)" style="fill: none; stroke: #059669; stroke-width: 2.5; stroke-linecap: square"/>
    <defs>
     <path id="m5c8e882994" d="M 0 2.5 
C 0.663008 2.5 1.29895 2.236584 1.767767 1.767767 
C 2.236584 1.29895 2.5 0.663008 2.5 0 
C 2.5 -0.663008 2.236584 -1.29895 1.767767 -1.767767 
C 1.29895 -2.236584 0.663008 -2.5 0 -2.5 
C -0.663008 -2.5 -1.29895 -2.236584 -1.767767 -1.767767 
C -2.236584 -1.29895 -2.5 -0.663008 -2.5 0 
C -2.5 0.663008 -2.236584 1.29895 -1.767767 1.767767 
C -1.29895 2.236584 -0.663008 2.5 0 2.5 
z
" style="stroke: #059669"/>
    </defs>
    <g clip-path="url(#pcef6095731)">
     <use xlink:href="#m5c8e882994" x="70.37323" y="70.173174" style="fill: #059669; stroke: #059669"/>
     <use xlink:href="#m5c8e882994" x="82.941287" y="70.553339" style="fill: #059669; stroke: #059669"/>
     <use xlink:href="#m5c8e882994" x="95.509343" y="70.562763" style="fill: #059669; stroke: #059669"/>
     <use xlink:href="#m5c8e882994" x="108.0774" y="70.595226" style="fill: #059669; stroke: #059669"/>
     <use xlink:href="#m5c8e882994" x="120.645457" y="70.639228" style="fill: #059669; stroke: #059669"/>
     <use xlink:href="#m5c8e882994" x="133.213514" y="70.221487" style="fill: #059669; stroke: #059669"/>
     <use xlink:href="#m5c8e882994" x="145.781571" y="70.240222" style="fill: #059669; stroke: #059669"/>
     <use xlink:href="#m5c8e882994" x="158.349628" y="70.217326" style="fill: #059669; stroke: #059669"/>
     <use xlink:href="#m5c8e882994" x="170.917685" y="70.221336" style="fill: #059669; stroke: #059669"/>
     <use xlink:href="#m5c8e882994" x="183.485742" y="70.230779" style="fill: #059669; stroke: #059669"/>
     <use xlink:href="#m5c8e882994" x="196.053799" y="70.230779" style="fill: #059669; stroke: #059669"/>
     <use xlink:href="#m5c8e882994" x="208.621856" y="70.187892" style="fill: #059669; stroke: #059669"/>
     <use xlink:href="#m5c8e882994" x="221.189913" y="70.374928" style="fill: #059669; stroke: #059669"/>
     <use xlink:href="#m5c8e882994" x="233.75797" y="70.365493" style="fill: #059669; stroke: #059669"/>
     <use xlink:href="#m5c8e882994" x="246.326027" y="70.337189" style="fill: #059669; stroke: #059669"/>
     <use xlink:href="#m5c8e882994" x="258.894084" y="70.327755" style="fill: #059669; stroke: #059669"/>
     <use xlink:href="#m5c8e882994" x="271.462141" y="70.310973" style="fill: #059669; stroke: #059669"/>
     <use xlink:href="#m5c8e882994" x="284.030198" y="70.265895" style="fill: #059669; stroke: #059669"/>
     <use xlink:href="#m5c8e882994" x="296.598255" y="70.247034" style="fill: #059669; stroke: #059669"/>
     <use xlink:href="#m5c8e882994" x="309.166312" y="70.228175" style="fill: #059669; stroke: #059669"/>
     <use xlink:href="#m5c8e882994" x="321.734369" y="70.185188" style="fill: #059669; stroke: #059669"/>
     <use xlink:href="#m5c8e882994" x="334.302426" y="70.094066" style="fill: #059669; stroke: #059669"/>
     <use xlink:href="#m5c8e882994" x="346.870483" y="70.010251" style="fill: #059669; stroke: #059669"/>
     <use xlink:href="#m5c8e882994" x="359.43854" y="69.961003" style="fill: #059669; stroke: #059669"/>
     <use xlink:href="#m5c8e882994" x="372.006597" y="70.019921" style="fill: #059669; stroke: #059669"/>
     <use xlink:href="#m5c8e882994" x="384.574653" y="70.054442" style="fill: #059669; stroke: #059669"/>
     <use xlink:href="#m5c8e882994" x="397.14271" y="70.257164" style="fill: #059669; stroke: #059669"/>
     <use xlink:href="#m5c8e882994" x="409.710767" y="70.494266" style="fill: #059669; stroke: #059669"/>
     <use xlink:href="#m5c8e882994" x="422.278824" y="71.201806" style="fill: #059669; stroke: #059669"/>
     <use xlink:href="#m5c8e882994" x="434.846881" y="71.460595" style="fill: #059669; stroke: #059669"/>
     <use xlink:href="#m5c8e882994" x="447.414938" y="71.522195" style="fill: #059669; stroke: #059669"/>
     <use xlink:href="#m5c8e882994" x="459.982995" y="72.73813" style="fill: #059669; stroke: #059669"/>
     <use xlink:href="#m5c8e882994" x="472.551052" y="72.634788" style="fill: #059669; stroke: #059669"/>
     <use xlink:href="#m5c8e882994" x="485.119109" y="72.68108" style="fill: #059669; stroke: #059669"/>
     <use xlink:href="#m5c8e882994" x="497.687166" y="72.697019" style="fill: #059669; stroke: #059669"/>
     <use xlink:href="#m5c8e882994" x="510.255223" y="72.58645" style="fill: #059669; stroke: #059669"/>
     <use xlink:href="#m5c8e882994" x="522.82328" y="72.5821" style="fill: #059669; stroke: #059669"/>
     <use xlink:href="#m5c8e882994" x="535.391337" y="72.712295" style="fill: #059669; stroke: #059669"/>
     <use xlink:href="#m5c8e882994" x="547.959394" y="72.587142" style="fill: #059669; stroke: #059669"/>
     <use xlink:href="#m5c8e882994" x="560.527451" y="72.539491" style="fill: #059669; stroke: #059669"/>
     <use xlink:href="#m5c8e882994" x="573.095508" y="72.501225" style="fill: #059669; stroke: #059669"/>
     <use xlink:href="#m5c8e882994" x="585.663565" y="72.481736" style="fill: #059669; stroke: #059669"/>
     <use xlink:href="#m5c8e882994" x="598.231622" y="72.44129" style="fill: #059669; stroke: #059669"/>
     <use xlink:href="#m5c8e882994" x="610.799679" y="72.423957" style="fill: #059669; stroke: #059669"/>
     <use xlink:href="#m5c8e882994" x="623.367736" y="72.456474" style="fill: #059669; stroke: #059669"/>
     <use xlink:href="#m5c8e882994" x="635.935793" y="72.388561" style="fill: #059669; stroke: #059669"/>
     <use xlink:href="#m5c8e882994" x="648.50385" y="72.381336" style="fill: #059669; stroke: #059669"/>
     <use xlink:href="#m5c8e882994" x="661.071907" y="72.381336" style="fill: #059669; stroke: #059669"/>
     <use xlink:href="#m5c8e882994" x="673.639963" y="72.390727" style="fill: #059669; stroke: #059669"/>
     <use xlink:href="#m5c8e882994" x="686.20802" y="72.381336" style="fill: #059669; stroke: #059669"/>
    </g>
   </g>
   <g id="patch_3">
    <path d="M 39.58149 362.64351 
L 39.58149 28.87524 
" style="fill: none; stroke: #000000; stroke-width: 0.8; stroke-linejoin: miter; stroke-linecap: square"/>
   </g>
   <g id="patch_4">
    <path d="M 39.58149 362.64351 
L 716.99976 362.64351 
" style="fill: none; stroke: #000000; stroke-width: 0.8; stroke-linejoin: miter; stroke-linecap: square"/>
   </g>
   <g id="text_18">
    <!-- P_C3 Convergence -->
    <g transform="translate(303.498125 14.87524) scale(0.16 -0.16)">
     <defs>
      <path id="DejaVuSans-50" d="M 1259 4147 
L 1259 2394 
L 2053 2394 
Q 2494 2394 2734 2622 
Q 2975 2850 2975 3272 
Q 2975 3691 2734 3919 
Q 2494 4147 2053 4147 
L 1259 4147 
z
M 628 4666 
L 2053 4666 
Q 2838 4666 3239 4311 
Q 3641 3956 3641 3272 
Q 3641 2581 3239 2228 
Q 2838 1875 2053 1875 
L 1259 1875 
L 1259 0 
L 628 0 
L 628 4666 
z
" transform="scale(0.015625)"/>
      <path id="DejaVuSans-5f" d="M 3263 -1063 
L 3263 -1509 
L -63 -1509 
L -63 -1063 
L 3263 -1063 
z
" transform="scale(0.015625)"/>
      <path id="DejaVuSans-43" d="M 4122 4306 
L 4122 3641 
Q 3803 3938 3442 4084 
Q 3081 4231 2675 4231 
Q 1875 4231 1450 3742 
Q 1025 3253 1025 2328 
Q 1025 1406 1450 917 
Q 1875 428 2675 428 
Q 3081 428 3442 575 
Q 3803 722 4122 1019 
L 4122 359 
Q 3791 134 3420 21 
Q 3050 -91 2638 -91 
Q 1578 -91 968 557 
Q 359 1206 359 2328 
Q 359 3453 968 4101 
Q 1578 4750 2638 4750 
Q 3056 4750 3426 4639 
Q 3797 4528 4122 4306 
z
" transform="scale(0.015625)"/>
      <path id="DejaVuSans-20" transform="scale(0.015625)"/>
      <path id="DejaVuSans-76" d="M 191 3500 
L 800 3500 
L 1894 563 
L 2988 3500 
L 3597 3500 
L 2284 0 
L 1503 0 
L 191 3500 
z
" transform="scale(0.015625)"/>
      <path id="DejaVuSans-65" d="M 3597 1894 
L 3597 1613 
L 953 1613 
Q 991 1019 1311 708 
Q 1631 397 2203 397 
Q 2534 397 2845 478 
Q 3156 559 3463 722 
L 3463 178 
Q 3153 47 2828 -22 
Q 2503 -91 2169 -91 
Q 1331 -91 842 396 
Q 353 884 353 1716 
Q 353 2575 817 3079 
Q 1281 3584 2069 3584 
Q 2775 3584 3186 3129 
Q 3597 2675 3597 1894 
z
M 3022 2063 
Q 3016 2534 2758 2815 
Q 2500 3097 2075 3097 
Q 1594 3097 1305 2825 
Q 1016 2553 972 2059 
L 3022 2063 
z
" transform="scale(0.015625)"/>
      <path id="DejaVuSans-72" d="M 2631 2963 
Q 2534 3019 2420 3045 
Q 2306 3072 2169 3072 
Q 1681 3072 1420 2755 
Q 1159 2438 1159 1844 
L 1159 0 
L 581 0 
L 581 3500 
L 1159 3500 
L 1159 2956 
Q 1341 3275 1631 3429 
Q 1922 3584 2338 3584 
Q 2397 3584 2469 3576 
Q 2541 3569 2628 3553 
L 2631 2963 
z
" transform="scale(0.015625)"/>
      <path id="DejaVuSans-67" d="M 2906 1791 
Q 2906 2416 2648 2759 
Q 2391 3103 1925 3103 
Q 1463 3103 1205 2759 
Q 947 2416 947 1791 
Q 947 1169 1205 825 
Q 1463 481 1925 481 
Q 2391 481 2648 825 
Q 2906 1169 2906 1791 
z
M 3481 434 
Q 3481 -459 3084 -895 
Q 2688 -1331 1869 -1331 
Q 1566 -1331 1297 -1286 
Q 1028 -1241 775 -1147 
L 775 -588 
Q 1028 -725 1275 -790 
Q 1522 -856 1778 -856 
Q 2344 -856 2625 -561 
Q 2906 -266 2906 331 
L 2906 616 
Q 2728 306 2450 153 
Q 2172 0 1784 0 
Q 1141 0 747 490 
Q 353 981 353 1791 
Q 353 2603 747 3093 
Q 1141 3584 1784 3584 
Q 2172 3584 2450 3431 
Q 2728 3278 2906 2969 
L 2906 3500 
L 3481 3500 
L 3481 434 
z
" transform="scale(0.015625)"/>
      <path id="DejaVuSans-63" d="M 3122 3366 
L 3122 2828 
Q 2878 2963 2633 3030 
Q 2388 3097 2138 3097 
Q 1578 3097 1268 2742 
Q 959 2388 959 1747 
Q 959 1106 1268 751 
Q 1578 397 2138 397 
Q 2388 397 2633 464 
Q 2878 531 3122 666 
L 3122 134 
Q 2881 22 2623 -34 
Q 2366 -91 2075 -91 
Q 1284 -91 818 406 
Q 353 903 353 1747 
Q 353 2603 823 3093 
Q 1294 3584 2113 3584 
Q 2378 3584 2631 3529 
Q 2884 3475 3122 3366 
z
" transform="scale(0.015625)"/>
     </defs>
     <use xlink:href="#DejaVuSans-50"/>
     <use xlink:href="#DejaVuSans-5f" transform="translate(60.302734 0)"/>
     <use xlink:href="#DejaVuSans-43" transform="translate(110.302734 0)"/>
     <use xlink:href="#DejaVuSans-33" transform="translate(180.126953 0)"/>
     <use xlink:href="#DejaVuSans-20" transform="translate(243.75 0)"/>
     <use xlink:href="#DejaVuSans-43" transform="translate(275.537109 0)"/>
     <use xlink:href="#DejaVuSans-6f" transform="translate(345.361328 0)"/>
     <use xlink:href="#DejaVuSans-6e" transform="translate(406.542969 0)"/>
     <use xlink:href="#DejaVuSans-76" transform="translate(469.921875 0)"/>
     <use xlink:href="#DejaVuSans-65" transform="translate(529.101562 0)"/>
     <use xlink:href="#DejaVuSans-72" transform="translate(590.625 0)"/>
     <use xlink:href="#DejaVuSans-67" transform="translate(629.988281 0)"/>
     <use xlink:href="#DejaVuSans-65" transform="translate(693.464844 0)"/>
     <use xlink:href="#DejaVuSans-6e" transform="translate(754.988281 0)"/>
     <use xlink:href="#DejaVuSans-63" transform="translate(818.367188 0)"/>
     <use xlink:href="#DejaVuSans-65" transform="translate(873.347656 0)"/>
    </g>
   </g>
   <g id="legend_1">
    <g id="line2d_25">
     <path d="M 615.326322 318.707572 
L 625.326322 318.707572 
L 635.326322 318.707572 
" style="fill: none; stroke: #2563eb; stroke-width: 2.5; stroke-linecap: square"/>
     <g>
      <use xlink:href="#m213fc566e9" x="625.326322" y="318.707572" style="fill: #2563eb; stroke: #2563eb"/>
     </g>
    </g>
    <g id="text_19">
     <!-- Train F1 -->
     <g transform="translate(643.326322 322.207572) scale(0.1 -0.1)">
      <defs>
       <path id="DejaVuSans-54" d="M -19 4666 
L 3928 4666 
L 3928 4134 
L 2272 4134 
L 2272 0 
L 1638 0 
L 1638 4134 
L -19 4134 
L -19 4666 
z
" transform="scale(0.015625)"/>
       <path id="DejaVuSans-61" d="M 2194 1759 
Q 1497 1759 1228 1600 
Q 959 1441 959 1056 
Q 959 750 1161 570 
Q 1363 391 1709 391 
Q 2188 391 2477 730 
Q 2766 1069 2766 1631 
L 2766 1759 
L 2194 1759 
z
M 3341 1997 
L 3341 0 
L 2766 0 
L 2766 531 
Q 2569 213 2275 61 
Q 1981 -91 1556 -91 
Q 1019 -91 701 211 
Q 384 513 384 1019 
Q 384 1609 779 1909 
Q 1175 2209 1959 2209 
L 2766 2209 
L 2766 2266 
Q 2766 2663 2505 2880 
Q 2244 3097 1772 3097 
Q 1472 3097 1187 3025 
Q 903 2953 641 2809 
L 641 3341 
Q 956 3463 1253 3523 
Q 1550 3584 1831 3584 
Q 2591 3584 2966 3190 
Q 3341 2797 3341 1997 
z
" transform="scale(0.015625)"/>
       <path id="DejaVuSans-69" d="M 603 3500 
L 1178 3500 
L 1178 0 
L 603 0 
L 603 3500 
z
M 603 4863 
L 1178 4863 
L 1178 4134 
L 603 4134 
L 603 4863 
z
" transform="scale(0.015625)"/>
      </defs>
      <use xlink:href="#DejaVuSans-54"/>
      <use xlink:href="#DejaVuSans-72" transform="translate(46.333984 0)"/>
      <use xlink:href="#DejaVuSans-61" transform="translate(87.447266 0)"/>
      <use xlink:href="#DejaVuSans-69" transform="translate(148.726562 0)"/>
      <use xlink:href="#DejaVuSans-6e" transform="translate(176.509766 0)"/>
      <use xlink:href="#DejaVuSans-20" transform="translate(239.888672 0)"/>
      <use xlink:href="#DejaVuSans-46" transform="translate(271.675781 0)"/>
      <use xlink:href="#DejaVuSans-31" transform="translate(329.195312 0)"/>
     </g>
    </g>
    <g id="line2d_26">
     <path d="M 615.326322 333.385697 
L 625.326322 333.385697 
L 635.326322 333.385697 
" style="fill: none; stroke: #dc2626; stroke-width: 2.5; stroke-linecap: square"/>
     <g>
      <use xlink:href="#m8d5aa2a574" x="625.326322" y="333.385697" style="fill: #dc2626; stroke: #dc2626"/>
     </g>
    </g>
    <g id="text_20">
     <!-- Validation F1 -->
     <g transform="translate(643.326322 336.885697) scale(0.1 -0.1)">
      <defs>
       <path id="DejaVuSans-56" d="M 1831 0 
L 50 4666 
L 709 4666 
L 2188 738 
L 3669 4666 
L 4325 4666 
L 2547 0 
L 1831 0 
z
" transform="scale(0.015625)"/>
       <path id="DejaVuSans-6c" d="M 603 4863 
L 1178 4863 
L 1178 0 
L 603 0 
L 603 4863 
z
" transform="scale(0.015625)"/>
       <path id="DejaVuSans-74" d="M 1172 4494 
L 1172 3500 
L 2356 3500 
L 2356 3053 
L 1172 3053 
L 1172 1153 
Q 1172 725 1289 603 
Q 1406 481 1766 481 
L 2356 481 
L 2356 0 
L 1766 0 
Q 1100 0 847 248 
Q 594 497 594 1153 
L 594 3053 
L 172 3053 
L 172 3500 
L 594 3500 
L 594 4494 
L 1172 4494 
z
" transform="scale(0.015625)"/>
      </defs>
      <use xlink:href="#DejaVuSans-56"/>
      <use xlink:href="#DejaVuSans-61" transform="translate(60.658203 0)"/>
      <use xlink:href="#DejaVuSans-6c" transform="translate(121.9375 0)"/>
      <use xlink:href="#DejaVuSans-69" transform="translate(149.720703 0)"/>
      <use xlink:href="#DejaVuSans-64" transform="translate(177.503906 0)"/>
      <use xlink:href="#DejaVuSans-61" transform="translate(240.980469 0)"/>
      <use xlink:href="#DejaVuSans-74" transform="translate(302.259766 0)"/>
      <use xlink:href="#DejaVuSans-69" transform="translate(341.46875 0)"/>
      <use xlink:href="#DejaVuSans-6f" transform="translate(369.251953 0)"/>
      <use xlink:href="#DejaVuSans-6e" transform="translate(430.433594 0)"/>
      <use xlink:href="#DejaVuSans-20" transform="translate(493.8125 0)"/>
      <use xlink:href="#DejaVuSans-46" transform="translate(525.599609 0)"/>
      <use xlink:href="#DejaVuSans-31" transform="translate(583.119141 0)"/>
     </g>
    </g>
    <g id="line2d_27">
     <path d="M 615.326322 348.063823 
L 625.326322 348.063823 
L 635.326322 348.063823 
" style="fill: none; stroke: #059669; stroke-width: 2.5; stroke-linecap: square"/>
     <g>
      <use xlink:href="#m5c8e882994" x="625.326322" y="348.063823" style="fill: #059669; stroke: #059669"/>
     </g>
    </g>
    <g id="text_21">
     <!-- Test F1 -->
     <g transform="translate(643.326322 351.563823) scale(0.1 -0.1)">
      <defs>
       <path id="DejaVuSans-73" d="M 2834 3397 
L 2834 2853 
Q 2591 2978 2328 3040 
Q 2066 3103 1784 3103 
Q 1356 3103 1142 2972 
Q 928 2841 928 2578 
Q 928 2378 1081 2264 
Q 1234 2150 1697 2047 
L 1894 2003 
Q 2506 1872 2764 1633 
Q 3022 1394 3022 966 
Q 3022 478 2636 193 
Q 2250 -91 1575 -91 
Q 1294 -91 989 -36 
Q 684 19 347 128 
L 347 722 
Q 666 556 975 473 
Q 1284 391 1588 391 
Q 1994 391 2212 530 
Q 2431 669 2431 922 
Q 2431 1156 2273 1281 
Q 2116 1406 1581 1522 
L 1381 1569 
Q 847 1681 609 1914 
Q 372 2147 372 2553 
Q 372 3047 722 3315 
Q 1072 3584 1716 3584 
Q 2034 3584 2315 3537 
Q 2597 3491 2834 3397 
z
" transform="scale(0.015625)"/>
      </defs>
      <use xlink:href="#DejaVuSans-54"/>
      <use xlink:href="#DejaVuSans-65" transform="translate(44.083984 0)"/>
      <use xlink:href="#DejaVuSans-73" transform="translate(105.607422 0)"/>
      <use xlink:href="#DejaVuSans-74" transform="translate(157.707031 0)"/>
      <use xlink:href="#DejaVuSans-20" transform="translate(196.916016 0)"/>
      <use xlink:href="#DejaVuSans-46" transform="translate(228.703125 0)"/>
      <use xlink:href="#DejaVuSans-31" transform="translate(286.222656 0)"/>
     </g>
    </g>
   </g>
  </g>
 </g>
 <defs>
  <clipPath id="pcef6095731">
   <rect x="39.58149" y="28.87524" width="677.41827" height="333.76827"/>
  </clipPath>
 </defs>
</svg>
